<?xml version="1.0" encoding="UTF-8"?>
<svg id="Layer_1" xmlns="http://www.w3.org/2000/svg" xmlns:xlink="http://www.w3.org/1999/xlink" version="1.1" viewBox="0 0 97 124">
  <!-- Generator: Adobe Illustrator 29.7.1, SVG Export Plug-In . SVG Version: 2.1.1 Build 8)  -->
  <defs>
    <style>
      .st0 {
        fill: none;
      }

      .st1 {
        fill: #1d1813;
      }

      .st2 {
        clip-path: url(#clippath-1);
      }

      .st3 {
        clip-path: url(#clippath-2);
      }

      .st4 {
        clip-path: url(#clippath);
      }
    </style>
    <clipPath id="clippath">
      <rect class="st0" x="9.8" y="49.3" width="36.8" height="31.2"/>
    </clipPath>
    <clipPath id="clippath-1">
      <rect class="st0" x="24.3" y="5.2" width="33.5" height="33"/>
    </clipPath>
    <clipPath id="clippath-2">
      <rect class="st0" x="60" y="22.6" width="28.4" height="26.8"/>
    </clipPath>
  </defs>
  <g class="st4">
    <path class="st1" d="M28.2,59.5c0-.3.1-.4.1-.5.8-3.6,2.8-6.3,5.8-8.4.5-.3,1-.6,1.6-.7.6-.2,1.2-.3,1.8-.2.6,0,1.1.3,1.6.7.3.2.6.3.9.4,2.2.3,3.6,1.5,4.3,3.5,1.2,2.8,1.2,5.7.1,8.6-.4,1-.7,2.1-1.1,3.1,0,.2-.1.4-.2.6-.4,2.4-1.8,4.3-3.3,6.1-.8,1-1.7,1.9-2.5,2.8-1.3,1.5-2.9,2.6-4.6,3.4-.4.2-.8.4-1.2.6-.5.2-1,.3-1.6.1-.9-.2-1.8-.5-2.7-.9-.5-.2-1.1-.4-1.7-.5-2.7-.5-5.1-1.6-7.3-3.3-1.8-1.4-3.6-2.9-5.4-4.3-.7-.6-1.3-1.2-1.8-1.9-1-1.2-1.3-2.7-1.1-4.2.3-1.7.9-3.1,2.2-4.3.9-.8,1.5-1.8,1.8-3,.2-1.1.9-1.9,1.8-2.6,1.1-.9,2.4-1.6,3.8-2,1.1-.3,2.2-.2,3.2.4,1,.6,1.9,1.3,2.6,2.3.8,1.1,1.6,2.3,2.4,3.4.1.2.2.4.5.7ZM38.1,56.4c0-.2,0-.7-.1-1.1-.1-.7-.3-.8-.9-.6-.4,0-.8.2-1.2.4-.3.2-.6.4-1,.6-.7.4-1.3,1-1.7,1.8-.5,1.1-1.1,2.1-1.5,3.1-.5,1.1-1.1,2-1.1,3.2,0,.5-.5.8-1,.9s-1,.1-1.3-.4c-.1-.2-.3-.4-.5-.6-.8-.5-1.4-1.2-2-1.9-.4-.6-.8-1.2-1.2-1.7-.5-.6-1-1.1-1.6-1.7-.8-.8-1.8-1-2.9-.8-.7.1-1.3.3-2,.5-.2,0-.4.1-.5.3-.1.2-.2.4-.1.6,0,.9.1,1.7.2,2.6.9,4.8,3.6,8.6,7.3,11.7.3.3.7.4,1.1.5.9.3,1.7.7,2.4,1.4.3.3.7.5,1,.8.5.3.6.3.9-.2.7-1.2,1.4-2.4,2.1-3.6.2-.4.5-.8.7-1.1,2-3.4,3.3-7,4.3-10.8.3-1.2.6-2.4.6-3.8ZM13.3,61.4c-.1.1-.3.2-.4.4-.8,1-1.3,2.1-1.4,3.4-.1,1,.1,1.9.8,2.6.5.6,1.1,1.2,1.7,1.8,1.7,1.4,3.4,2.8,5.2,4.2,2,1.6,4.3,2.7,6.9,3.1.3,0,.6.1,1,.2,0-.2-.2-.3-.3-.4-.6-.4-1.1-.8-1.7-1.2-.3-.2-.7-.5-1.1-.6-3.7-1.5-6.6-4-9-7.1-.8-1-1.3-2.2-1.4-3.5,0-.7,0-1.4-.1-2.1,0-.2,0-.4,0-.7ZM41.9,57.4c0,0-.1.2-.2.2,0,0,0,.2,0,.3-.6,4-1.9,7.7-3.9,11.2-.9,1.4-1.7,2.8-2.6,4.3-.1.2-.2.4-.4.7.1,0,.2,0,.3-.1.2-.1.3-.2.5-.4,1.7-1.5,3.3-3.2,4.6-5.1.5-.8,1-1.6,1.4-2.4.5-.9.7-1.9.7-2.9,0-.7,0-1.4,0-2.2,0-1.2-.2-2.3-.4-3.6ZM39.5,54.8s0,0,0,.1c0,0,0,.2,0,.3.3,1.4,0,2.8-.2,4.1-.8,3.1-1.8,6.1-3,9.1-.1.2-.2.5-.3.8.1,0,.1,0,.1,0,0,0,.1-.1.2-.2,2.1-3.4,3.5-7,4-11,.1-.8,0-1.7,0-2.6,0-.4-.1-.5-.6-.5ZM15.9,59.8c-.6,1-.8,2-.5,3,.4,1.3,1,2.5,1.8,3.5.2.2.3.4.5.5-.3-1.2-.7-2.3-1-3.4-.3-1.1-.5-2.3-.8-3.7h0ZM32.3,54.5c1.6-1.1,3.4-2,4.9-3.3-1.4-.2-4,1.6-4.9,3.3h0ZM43.6,58.7h.1c0-.1,0-.2,0-.3,0-1.4-.3-2.7-.9-3.9-.3-.7-.7-1.2-1.3-1.6-.2-.1-.4-.2-.7-.4.1.7.3,1.2.8,1.6.5.4.9.9,1.2,1.5.3.7.5,1.5.6,2.3,0,.3,0,.6.1.9h0ZM21.1,54.8c-1-.6-1.8-.3-2.1.5l2.1-.5ZM38.1,52.7c.4.5.5.5,1.1.4-.1-.8-.4-.9-1.1-.4ZM15.8,57.1c.7-.5.7-.5.7-1-.4.2-.6.6-.7,1Z"/>
  </g>
  <path class="st1" d="M53.8,87.4c.2-.2.2-.2.3-.3,2-2.2,4.5-3.1,7.3-3.4.5,0,.9,0,1.4.1,1,.2,1.7.7,2.1,1.7.1.2.3.4.5.6,1.4,1,1.8,2.5,1.6,4.1-.3,2.4-1.4,4.4-3.3,5.9-.7.6-1.3,1.1-2,1.7-.1.1-.3.2-.4.4-1.2,1.5-3,2.2-4.7,2.9-.9.4-1.9.6-2.8.9-1.5.5-3,.6-4.5.5-.4,0-.7,0-1.1,0-.4,0-.8-.2-1.1-.5-.6-.5-1-1-1.5-1.7-.3-.4-.6-.7-1-1-1.6-1.4-2.9-3.1-3.7-5.1-.7-1.7-1.3-3.4-2-5.1-.2-.7-.4-1.3-.5-2-.2-1.3,0-2.4.9-3.3.8-1.1,1.9-1.7,3.2-2,1-.2,1.8-.6,2.4-1.4.6-.6,1.4-1,2.3-1.1,1.1-.1,2.3,0,3.4.2.9.2,1.6.7,2,1.5.5.8.8,1.7.9,2.6.1,1.1.2,2.2.3,3.3,0,.2,0,.3,0,.7ZM61.7,89.2c0-.2.2-.5.4-.8.2-.5.1-.7-.4-.8-.3-.1-.7-.2-1-.2-.3,0-.6,0-.9,0-.7,0-1.3.2-1.9.6-.8.5-1.6,1-2.3,1.5-.7.5-1.5,1-2,1.8-.2.4-.6.3-1,.2-.4-.1-.7-.3-.7-.8,0-.2,0-.4-.1-.6-.3-.7-.5-1.4-.6-2.1s0-1.1-.2-1.6c0-.6-.2-1.2-.4-1.8-.3-.8-.8-1.4-1.6-1.7-.5-.2-1-.3-1.5-.4-.2,0-.3,0-.5,0-.1,0-.3.2-.3.3-.3.6-.6,1.2-.9,1.9-1.3,3.7-1,7.3.3,10.9.1.3.3.6.5.8.5.5.9,1.2,1.1,1.9.1.3.2.6.4.9.2.4.3.4.7.2.9-.6,1.9-1.1,2.9-1.6.3-.2.6-.3.9-.5,2.7-1.5,5-3.5,7.2-5.6.7-.7,1.4-1.5,1.9-2.3ZM42.9,82.7c-.1,0-.3,0-.4,0-1,.3-1.7.9-2.3,1.8-.5.6-.7,1.3-.5,2.1,0,.7.3,1.3.5,1.9.6,1.6,1.2,3.3,1.9,4.9.7,1.9,1.9,3.5,3.4,4.8.2.2.4.3.6.5,0-.1,0-.3,0-.4-.2-.5-.4-1-.7-1.5-.1-.3-.3-.6-.5-.9-1.9-2.5-2.9-5.3-3.3-8.4-.1-1,0-2,.5-3,.2-.5.5-1,.8-1.5,0-.1.1-.3.3-.5ZM63.9,91.4c-.2,0-.2,0-.2,0,0,0,0,.1-.1.2-2,2.5-4.4,4.5-7.1,6-1.1.6-2.3,1.2-3.5,1.9-.2,0-.3.2-.5.3,0,0,.2,0,.3,0,.2,0,.3,0,.5,0,1.8-.3,3.5-.9,5.2-1.6.7-.3,1.3-.7,1.9-1,.7-.4,1.2-1,1.6-1.7.3-.5.6-1,.9-1.5.4-.8.8-1.7,1.2-2.6ZM63.3,88.6s0,0,0,0c0,0,0,.1,0,.2-.4,1-1,2-1.8,2.7-1.8,1.8-3.6,3.5-5.7,4.9-.2.1-.3.2-.5.4,0,0,.1,0,.1,0,0,0,.1,0,.2,0,2.8-1.5,5.2-3.4,7.1-5.9.4-.5.7-1.2,1-1.8.2-.3.1-.4-.2-.5ZM45.3,82.6c-.8.5-1.4,1-1.6,1.8-.2,1-.3,2.1-.2,3.1,0,.2,0,.4.1.6.3-.9.4-1.8.7-2.7.2-.9.6-1.8.9-2.8ZM58.6,85.6c1.5-.1,3.1,0,4.6-.3-.9-.7-3.3-.5-4.6.3ZM64.6,93h0c0,0,.1,0,.2-.2.5-.9.8-2,1-3,0-.6,0-1.1-.3-1.7,0-.2-.2-.3-.3-.5-.2.5-.3.9-.1,1.4.2.5.3,1,.2,1.5,0,.6-.2,1.2-.5,1.8,0,.2-.2.4-.3.7ZM50.8,81.3c-.4-.8-1.1-1-1.6-.5l1.6.5ZM63.3,86.6c0,.5.2.5.6.7.2-.6,0-.7-.6-.7ZM46.3,80.7c.6,0,.7,0,.9-.4-.3,0-.6.1-.9.4Z"/>
  <path class="st1" d="M29.5,107.6c0-.1,0-.2,0-.2.6-1.8,1.8-3.1,3.4-4,.3-.1.6-.2.9-.3.7-.2,1.2,0,1.7.4.1.1.3.2.4.2,1.1.2,1.8,1,2.1,2,.5,1.5.3,3-.3,4.4-.2.5-.5,1-.7,1.6,0,.1,0,.2-.1.3-.3,1.2-1.2,2.1-2,3-.5.5-1,.9-1.4,1.3-.7.7-1.6,1.2-2.6,1.6-.2,0-.4.2-.7.2-.3,0-.5,0-.8,0-.5-.1-.9-.3-1.4-.6-.3-.1-.5-.3-.8-.3-1.4-.4-2.6-1.1-3.6-2.1-.9-.8-1.7-1.7-2.6-2.5-.3-.3-.6-.7-.9-1.1-.5-.7-.6-1.4-.4-2.2.2-.9.6-1.6,1.3-2.1.5-.4.9-.9,1.1-1.5.2-.5.5-1,1.1-1.3.6-.4,1.3-.7,2.1-.8.6-.1,1.1,0,1.6.4.5.3.9.8,1.2,1.3.4.6.7,1.3,1.1,1.9,0,.1.1.2.2.4ZM34.7,106.5c0-.1,0-.4,0-.6,0-.3-.1-.4-.4-.4-.2,0-.4,0-.6.2-.2,0-.3.2-.5.3-.4.2-.7.5-.9.9-.3.5-.7,1-.9,1.6-.3.5-.6,1-.7,1.6,0,.3-.3.4-.5.4s-.5,0-.7-.3c0-.1-.1-.2-.3-.3-.4-.3-.7-.7-.9-1.1s-.3-.6-.5-.9c-.2-.3-.5-.6-.7-.9-.4-.4-.9-.6-1.4-.6-.3,0-.7.1-1,.1-.3,0-.4.2-.4.4,0,.5,0,.9,0,1.4.2,2.5,1.4,4.6,3.2,6.4.1.1.3.3.5.3.5.2.8.5,1.2.8.2.2.3.3.5.5.2.2.3.2.5,0,.4-.6.8-1.2,1.3-1.8.1-.2.3-.4.4-.6,1.2-1.7,2.1-3.5,2.8-5.4.3-.6.4-1.3.5-1.9ZM21.7,107.9c0,0-.2.1-.2.2-.5.5-.8,1-.9,1.7-.1.5,0,1,.3,1.4.2.4.5.7.8,1,.8.8,1.6,1.6,2.5,2.4,1,.9,2.1,1.6,3.4,1.9.2,0,.3.1.5.1,0,0,0-.2-.1-.2-.3-.2-.5-.5-.8-.7-.2-.1-.3-.3-.5-.4-1.8-.9-3.2-2.4-4.3-4.1-.4-.6-.6-1.2-.5-1.9,0-.4,0-.7,0-1.1,0-.1,0-.2,0-.4h0ZM36.7,107.2c0,0,0,0-.1.1,0,0,0,0,0,.1-.5,2-1.4,3.9-2.6,5.6-.5.7-1,1.4-1.6,2.1,0,0-.1.2-.2.4,0,0,.1,0,.2,0,0,0,.2-.1.3-.2,1-.7,1.9-1.5,2.6-2.4.3-.4.6-.8.8-1.2.3-.4.5-.9.5-1.5,0-.4,0-.7.1-1.1,0-.6,0-1.3,0-1.9h0ZM35.5,105.8s0,0,0,0h0c0,.9,0,1.6-.3,2.3-.5,1.6-1.2,3.1-2,4.5,0,.1-.1.2-.2.4,0,0,0,0,0,0s0,0,0-.1c1.2-1.6,2.1-3.5,2.6-5.5,0-.5.1-.9,0-1.4,0-.2,0-.3-.3-.3h0ZM23.1,107.2c-.3.5-.5,1-.4,1.5.1.7.4,1.3.7,1.9,0,.1.1.2.2.3,0-.6-.3-1.2-.4-1.8-.1-.6-.1-1.2-.2-1.9h0ZM31.9,105.3c.9-.5,1.8-.8,2.7-1.5-.7-.2-2.1.6-2.7,1.4h0ZM37.5,108h0c0,0,0-.1,0-.2,0-.7,0-1.4-.3-2.1-.1-.4-.3-.7-.6-.9-.1,0-.2-.2-.3-.2,0,.4,0,.6.3.9.3.2.4.5.6.8.1.4.2.8.2,1.2,0,.2,0,.3,0,.5h0ZM26,104.8c-.5-.3-.9-.3-1.1.1h1.1ZM34.9,104.6c.2.3.2.3.6.3,0-.4-.1-.5-.6-.3ZM23.2,105.8q.4-.2.4-.5c-.2,0-.3.3-.4.5Z"/>
  <g class="st2">
    <path class="st1" d="M39.5,19.3c0-.3,0-.4-.1-.5-1-3.5-.5-6.9,1.2-10.1.3-.5.6-1,1-1.4.9-1,1.9-1.4,3.2-1.2.3,0,.7,0,1-.1,2-.8,3.9-.3,5.5,1.1,2.4,2,3.7,4.5,4.2,7.5.1,1.1.3,2.2.5,3.3,0,.2,0,.4.1.7.7,2.3.4,4.6,0,6.9-.2,1.2-.6,2.4-.9,3.7-.4,1.9-1.3,3.6-2.4,5.2-.3.4-.5.7-.8,1.1-.3.4-.8.7-1.3.9-.9.3-1.8.4-2.8.5-.6,0-1.2.2-1.7.4-2.6.8-5.3,1-8,.5-2.3-.4-4.6-.8-6.8-1.3-.9-.2-1.7-.5-2.5-.8-1.5-.6-2.4-1.7-3-3.2-.5-1.6-.6-3.2-.1-4.8.4-1.2.5-2.3.1-3.5-.3-1.1-.1-2.1.3-3.2s1.4-2.5,2.5-3.5c.8-.8,1.8-1.2,3-1.2,1.2,0,2.3.3,3.4.8,1.3.6,2.5,1.3,3.7,1.9.2,0,.4.2.7.4ZM46.8,12c-.1-.2-.4-.6-.7-.9-.4-.5-.6-.6-1.1-.1-.3.3-.6.6-.9.9-.2.3-.4.7-.6,1-.5.7-.7,1.5-.6,2.4,0,1.2,0,2.3.1,3.5.1,1.2,0,2.3.5,3.4.2.5,0,.9-.5,1.2-.4.3-.8.6-1.4.3-.2-.1-.5-.2-.7-.3-.9-.1-1.8-.4-2.6-.8-.6-.3-1.2-.7-1.9-.9-.7-.3-1.4-.5-2.2-.7-1.1-.3-2.1,0-2.9.6-.5.4-1,.9-1.5,1.4-.2.1-.3.3-.3.5,0,.2,0,.4.2.6.4.7.9,1.5,1.4,2.2,3.1,3.8,7.2,5.9,11.9,6.9.4,0,.8,0,1.2,0,.9-.2,1.8-.1,2.7,0,.4.1.8.2,1.3.2.6,0,.6,0,.7-.6,0-1.4,0-2.8.1-4.2,0-.5,0-.9,0-1.4.1-3.9-.4-7.8-1.3-11.6-.3-1.2-.5-2.4-1.2-3.6ZM27.3,28c0,.2-.1.3-.2.5-.3,1.3-.1,2.5.4,3.7.4.9,1,1.6,1.9,2,.8.3,1.6.6,2.4.8,2.2.5,4.4.9,6.6,1.2,2.6.5,5.1.3,7.5-.5.3-.1.6-.2.9-.3-.1-.1-.3-.2-.5-.2-.7,0-1.4-.2-2.1-.3-.4,0-.9,0-1.3,0-4,.4-7.7-.4-11.3-2-1.2-.5-2.2-1.3-2.9-2.4-.4-.6-.7-1.2-1.1-1.8-.1-.2-.2-.4-.4-.6ZM50.6,11c0,0,0,.2,0,.3,0,0,0,.2,0,.3,1.4,3.8,2,7.7,1.8,11.7,0,1.7-.2,3.3-.3,5,0,.2,0,.4,0,.8,0,0,.2-.2.2-.3,0-.2.2-.4.3-.6.8-2.2,1.4-4.4,1.7-6.7,0-.9.1-1.8.1-2.8,0-1-.2-2-.7-2.9-.3-.6-.7-1.3-1-1.9-.6-1-1.3-1.9-2-3ZM47.3,9.9s0,0,0,.1c0,0,0,.2.1.2.9,1.1,1.4,2.4,1.7,3.8.8,3.1,1.3,6.2,1.6,9.4,0,.3,0,.5,0,.8,0,0,0,0,0-.1,0,0,0-.2,0-.3.3-4-.3-7.8-1.6-11.6-.3-.8-.8-1.5-1.3-2.3-.3-.4-.4-.4-.8-.1ZM28.8,25.3c0,1.2.2,2.1,1,2.9.9.9,2,1.7,3.2,2.3.2,0,.5.2.7.2-.8-.9-1.7-1.7-2.5-2.5s-1.5-1.8-2.4-2.9ZM40.8,13c.9-1.7,2.1-3.3,2.8-5.2-1.3.5-2.8,3.2-2.8,5.2ZM52.7,11.4h0c0-.2,0-.3-.1-.4-.7-1.2-1.6-2.2-2.6-3-.6-.5-1.2-.7-2-.8-.3,0-.5,0-.8,0,.5.6.8.9,1.4,1,.7.1,1.2.4,1.8.7.6.5,1.2,1.1,1.6,1.7.2.3.4.5.5.7ZM31,18.5c-1.1,0-1.8.5-1.6,1.4l1.6-1.4ZM45,8.6c.6.2.7.2,1.2-.2-.5-.6-.7-.6-1.2.2ZM27.4,23c.4-.7.4-.7.1-1.2-.2.4-.3.8-.1,1.2Z"/>
  </g>
  <g class="st3">
    <path class="st1" d="M75.2,31.8c0-.2.1-.3.1-.4.7-2.8,2.5-4.9,4.9-6.4.4-.2.8-.4,1.3-.5,1-.3,1.9-.2,2.7.5.2.2.4.3.7.3,1.7.3,2.8,1.3,3.3,2.9.8,2.3.8,4.5-.2,6.8-.3.8-.7,1.6-1,2.4,0,.2-.1.3-.2.5-.4,1.9-1.6,3.3-2.8,4.7-.6.8-1.4,1.4-2.1,2.1-1.1,1.1-2.3,1.9-3.7,2.6-.3.1-.6.3-1,.4-.4.2-.8.2-1.2,0-.7-.2-1.4-.4-2.1-.8-.4-.2-.9-.3-1.3-.4-2.1-.5-4-1.4-5.7-2.8-1.4-1.2-2.8-2.4-4.1-3.6-.5-.5-1-1-1.4-1.5-.8-1-1-2.1-.7-3.4.2-1.3.8-2.4,1.8-3.3.8-.6,1.3-1.4,1.5-2.3.3-.9.7-1.5,1.5-2,.9-.7,2-1.1,3.1-1.4.9-.2,1.7,0,2.5.4.8.5,1.5,1.1,2,1.9.6.9,1.2,1.8,1.8,2.8,0,.1.2.3.3.6ZM83,29.7c0-.2,0-.5,0-.9,0-.5-.2-.6-.7-.5-.3,0-.7.2-1,.3-.3.1-.5.3-.8.4-.6.3-1.1.8-1.4,1.4-.4.8-.9,1.6-1.3,2.4-.4.8-.9,1.6-1,2.5,0,.4-.4.6-.8.7-.4,0-.8,0-1-.4-.1-.2-.2-.3-.4-.5-.6-.4-1.1-1-1.5-1.6-.3-.5-.6-.9-.9-1.4-.4-.5-.7-.9-1.2-1.4-.6-.6-1.4-.9-2.2-.7-.5,0-1,.2-1.6.3-.2,0-.3,0-.4.2-.1.1-.1.3-.1.4,0,.7,0,1.4.1,2.1.6,3.8,2.5,6.9,5.4,9.5.2.2.5.4.8.5.7.2,1.3.6,1.8,1.1.2.2.5.5.8.6.4.3.4.2.7-.2.6-.9,1.2-1.9,1.8-2.8.2-.3.4-.6.6-.9,1.7-2.6,2.8-5.4,3.7-8.4.3-.9.5-1.9.6-2.9ZM63.4,32.9c-.1,0-.2.2-.3.3-.7.8-1.1,1.6-1.2,2.7-.1.8,0,1.5.5,2.1.4.5.8,1,1.3,1.5,1.3,1.2,2.6,2.3,4,3.4,1.5,1.4,3.3,2.2,5.3,2.7.3,0,.5.1.8.2,0-.1-.1-.3-.2-.4-.4-.3-.9-.7-1.3-1-.3-.2-.5-.4-.9-.5-2.9-1.3-5.1-3.3-6.9-5.9-.6-.8-.9-1.8-1-2.8,0-.5,0-1.1,0-1.6,0-.2,0-.3,0-.6ZM86,30.6c-.1.1-.1.1-.1.2,0,0,0,.1,0,.2-.6,3.1-1.7,6-3.5,8.7-.7,1.1-1.5,2.2-2.2,3.3-.1.1-.2.3-.3.5,0,0,.2,0,.3,0,.1,0,.3-.2.4-.3,1.4-1.1,2.7-2.4,3.8-3.9.4-.6.8-1.2,1.2-1.8.4-.7.6-1.5.7-2.3,0-.6,0-1.1,0-1.7,0-1,0-1.9-.2-2.9ZM84.2,28.5s0,0,0,0c0,0,0,.1,0,.2.1,1.1,0,2.2-.3,3.3-.7,2.4-1.6,4.8-2.7,7,0,.2-.2.4-.3.6,0,0,.1,0,.1,0,0,0,0-.1.1-.2,1.8-2.6,3-5.4,3.5-8.5.1-.7,0-1.4,0-2.1,0-.3,0-.4-.4-.4ZM65.4,31.7c-.5.8-.7,1.5-.5,2.4.3,1,.7,2,1.3,2.8.1.2.3.3.4.4-.2-.9-.5-1.8-.7-2.7-.2-.9-.3-1.9-.5-2.9h0ZM78.6,28.1c1.3-.8,2.7-1.4,4-2.4-1.1-.2-3.2,1.1-4,2.4h0ZM87.3,31.7h0c0,0,0-.2,0-.3,0-1.1-.2-2.1-.6-3.1-.2-.5-.5-1-1-1.4-.2-.1-.3-.2-.5-.3,0,.6.2,1,.5,1.3.4.3.7.7.9,1.2.2.6.4,1.2.4,1.8v.7c0,0,0,0,0,0ZM69.7,27.9c-.7-.5-1.4-.3-1.7.3l1.7-.3ZM83.2,26.8c.3.4.4.4.9.3,0-.6-.3-.7-.9-.3h0ZM65.4,29.6c.5-.4.5-.4.6-.8-.3.2-.5.4-.6.8h0Z"/>
  </g>
  <path class="st1" d="M63.3,61.2c0-.1,0-.2,0-.3-.4-1.9.1-3.6,1.1-5.2.2-.3.4-.5.6-.7.5-.5,1.1-.6,1.7-.5.2,0,.3,0,.5,0,1.1-.3,2,0,2.8.8,1.1,1.1,1.7,2.5,1.8,4.1,0,.6,0,1.1,0,1.7,0,.1,0,.2,0,.3.3,1.2,0,2.4-.3,3.6-.2.6-.5,1.2-.6,1.9-.3,1-.8,1.8-1.5,2.6-.1.2-.3.4-.5.5-.2.2-.5.3-.7.4-.5,0-1,.1-1.5.1-.3,0-.6,0-.9.1-1.4.3-2.8.3-4.2-.1-1.2-.3-2.3-.7-3.5-1-.4-.1-.9-.3-1.3-.5-.7-.4-1.2-1-1.4-1.8-.2-.8-.2-1.7.2-2.5.3-.6.4-1.2.3-1.8,0-.6,0-1.1.3-1.6.4-.7.9-1.2,1.4-1.7.5-.4,1-.5,1.6-.5.6,0,1.2.3,1.7.6.6.4,1.2.8,1.8,1.2,0,0,.2.1.3.2ZM67.3,57.7c0-.1-.2-.3-.3-.5-.2-.3-.3-.3-.6-.1-.2.1-.3.3-.5.5-.1.1-.2.3-.3.5-.3.3-.4.7-.5,1.2,0,.6,0,1.2-.1,1.8,0,.6,0,1.2.1,1.8,0,.3,0,.5-.3.6s-.5.2-.7,0c-.1,0-.2-.1-.4-.2-.5-.1-.9-.3-1.3-.5-.3-.2-.6-.4-.9-.6-.3-.2-.7-.4-1.1-.5-.5-.2-1.1-.1-1.6.2-.3.2-.6.4-.8.6-.2.1-.3.3-.1.6.2.4.4.8.6,1.2,1.4,2.1,3.4,3.4,5.8,4.2.2,0,.4,0,.6,0,.5,0,1,0,1.4.2.2,0,.4.1.6.2.3,0,.3,0,.4-.3,0-.7.2-1.4.3-2.2,0-.2,0-.4.1-.7.2-2,.2-4,0-6,0-.7-.2-1.3-.4-1.9ZM56.5,65c0,0,0,.2-.1.3-.2.6-.2,1.3,0,1.9.1.5.4.9.9,1.1.4.2.8.4,1.2.5,1.1.3,2.2.7,3.3,1,1.3.4,2.6.4,3.9.1.2,0,.3,0,.5,0,0,0-.1-.1-.2-.1-.3,0-.7-.2-1.1-.2-.2,0-.4,0-.7,0-2.1,0-4-.6-5.7-1.6-.6-.3-1.1-.8-1.4-1.4-.2-.3-.3-.7-.5-1l-.2-.3ZM69.4,57.4c0,.1,0,.1,0,.1,0,0,0,0,0,.1.5,2,.6,4.1.3,6.2s-.3,1.7-.4,2.6c0,.1,0,.2,0,.4,0,0,.1-.1.1-.1,0,0,.1-.2.2-.3.5-1.1.9-2.2,1.2-3.4,0-.5.2-.9.2-1.4,0-.5,0-1.1-.2-1.5-.1-.3-.3-.7-.4-1-.3-.6-.6-1.1-.9-1.6h0ZM67.7,56.7h0c0,.1,0,.2,0,.2.4.6.6,1.3.7,2,.3,1.6.4,3.3.3,4.9v.4s0,0,0,0c0,0,0,0,0-.1.3-2,.3-4.1-.3-6.1-.1-.4-.3-.8-.6-1.2-.1-.2-.2-.2-.4,0ZM57.4,63.7c0,.6,0,1.1.4,1.6.4.5.9,1,1.6,1.4.1,0,.2.1.4.1-.4-.5-.8-.9-1.2-1.4-.4-.5-.7-1-1.1-1.6ZM64.2,58c.6-.9,1.2-1.6,1.7-2.6-.7.2-1.6,1.5-1.7,2.6ZM70.5,57.7h0c0,0,0-.1,0-.2-.3-.6-.7-1.2-1.2-1.7-.3-.3-.6-.4-1-.5-.1,0-.3,0-.4,0,.2.3.4.5.7.6.3,0,.6.3.9.5.3.3.5.6.7,1,0,.1.2.3.3.4ZM58.9,60.3c-.6,0-.9.2-.9.6l.9-.6ZM66.6,55.9c.3.1.3.1.6,0-.2-.3-.3-.3-.6,0ZM56.8,62.5c.2-.4.2-.4.1-.6-.1.2-.2.4-.1.6Z"/>
</svg>