<?xml version="1.0" encoding="UTF-8"?>
<svg id="Layer_1" xmlns="http://www.w3.org/2000/svg" version="1.1" viewBox="0 0 424 124">
  <!-- Generator: Adobe Illustrator 29.8.1, SVG Export Plug-In . SVG Version: 2.1.1 Build 2)  -->
  <defs>
    <style>
      .st0 {
        fill: #ae2012;
      }
    </style>
  </defs>
  <path class="st0" d="M63.9,57.8c.4-.2.7-.2,1,0,.4.3.4.6,0,.9,0,0-.4.4-1.1,1-.7.6-1.6,1.1-2.7,1.5-1.1.4-2.2.5-3.4.3-1.2-.3-2.2-.8-3.1-1.4-.9-.6-1.7-1.4-2.4-2.4-.4,1.5-.8,3.1-1.3,4.8s-1.1,3.3-1.7,4.7h0c-.6,1.3-1.2,2.3-1.8,3.2s-1.3,1.4-1.9,1.5c0,0-.3,0-.4,0h-.5c-.8,0-1.5-.2-2.1-.7-1.2-.8-2.3-2.4-3.3-4.5-.9-2.2-1.7-4.6-2.4-7.4-.6-2.8-1.1-5.4-1.6-8.1,0,1.2-.3,2.4-.5,3.7s-.4,2.6-.7,3.9c-1.8,9.9-4,15.7-6.5,17.5h0c-.5.4-1.1.5-1.7.5-1.5,0-2.9-.7-4.2-2-1.6-1.8-3-4.5-4-8.1s-1.8-7.9-2.4-12.6c-.5-4.8-.8-9.7-1-14.9-.1-5.2-.1-10.3,0-15.3s.3-9.5.6-13.4c0-1.6.9-2.9,2.4-3.8l2.1-1.1c.6-.4,1.2-.3,1.9,0,.5.4.8.9.8,1.7-.8,9.1-1.3,17.5-1.4,25.4,0,7.8.2,14.7.7,20.7s1.2,10.8,2.1,14.5c.9,3.7,1.9,6,2.9,6.9.2.3.4.4.6.4.5-.4,1.1-1.1,1.7-2.2s1.3-2.8,2-5.1c.7-2.3,1.4-5.4,2.2-9.4.4-2.3.7-4.5,1-6.6s.5-4.1.7-5.8l-.3-3.6c-.2-2.1.5-3.7,2.1-5l.9-.7c.5-.4,1.1-.5,1.7-.2.7.3,1,.8,1,1.5.2,5.8.7,10.9,1.4,15.4s1.5,8,2.4,10.5,1.9,3.9,2.8,4.1c.3,0,.5,0,.8-.4s.6-.7.8-1h0c.5-1.3,1-2.7,1.5-4.4.6-1.7,1.1-3.7,1.7-6-.8-1.3-1.5-2.8-2-4.3s-1-3-1.3-4.5c-.7-3.2-1.1-6.7-1.2-10.3,0-3.7.2-7,.8-10,.5-2.6,1.2-4.5,2-5.8.9-1.3,1.9-1.8,3.1-1.6,1.9.2,3,3.1,3.2,8.6,0,3.3,0,7.4-.6,12.1-.5,4.7-1.3,9.4-2.3,14.1.5,1.2,1.1,2.2,1.7,3.1.7.9,1.4,1.6,2.3,2.1.3,0,.7.3,1.2.4.9.2,1.8,0,2.7-.3.9-.4,1.6-.9,2.2-1.4.6-.5.9-.8.9-.8h-.1ZM52.1,52.2c.8-4.3,1.5-8.6,1.9-12.8.5-4.2.6-7.8.5-10.8,0-2.7-.3-4.5-.7-5.4s-.7-1.5-1-1.8h-.2c-.4.3-.8,1.2-1.2,2.8-.4,1.6-.7,3.5-.9,5.8-.2,2.3-.3,4.5-.2,6.8,0,1.7.2,4,.3,6.9.2,2.9.7,5.8,1.5,8.5Z"/>
  <path class="st0" d="M91.2,58.1c.3.3.4.6.2,1-3.7,4.8-6.8,8.5-9.5,11-2.6,2.5-5.1,4.2-7.5,5.1h0c-1.5.5-2.8.7-4.1.7s-2.1-.3-3.4-.9-2.5-1.7-3.5-3.1c-.8-1.2-1.4-2.9-1.7-5.1-.4-2.2,0-5,1.4-8.5,2.2-5.8,4.7-9.8,7.5-12.2,2.8-2.3,5.2-3.5,7.2-3.5s3.6.9,4.6,2.7c0,.2.2.4.3.5,0,.2.2.4.2.7,0,.4.2.7.2.9,0,.6,0,1.3,0,2.2-.2.8-.5,1.7-1,2.8-1.1,2-2.5,3.6-4.2,4.7-1.7,1.2-3.4,2-4.9,2.5s-2.6.8-3.2.9c-.9,2.6-1.3,5-1.3,7.3s.6,3.9,1.5,5.1c1,1.2,2.4,1.6,4.1,1.1h0c1.9-.7,4.2-2.2,6.7-4.6,2.5-2.3,5.7-6.1,9.5-11.2.3-.3.6-.4.9-.2h0ZM70.4,58.9l-.2.3c.8-.2,1.9-.5,3.3-1,1.3-.5,2.7-1.3,4.1-2.3s2.5-2.3,3.3-3.9c1-1.8,1.2-3.4.7-4.8l-.5-.7c-.5-.3-1-.3-1.6,0-1,.3-2.2,1.3-3.8,3.1-1.5,1.7-3.3,4.9-5.3,9.5v-.2Z"/>
  <path class="st0" d="M95.4,14.7c-.3.6-.7,1.3-1.4,2-.7.7-1.7,1.3-3.1,1.8h-.2c-.3,0-.5-.1-.7-.4,0-.4,0-.7.3-.8l1.4-.5v-1.1c0-.5-.2-1-.5-1.7s-.4-1.3-.2-1.9c.2-.6.5-1.2,1.2-1.6l.8-.5c.4-.2.8-.2,1.2-.2.4.1.7.4.9.7.7,1.5.7,3,.2,4.3h0Z"/>
  <path class="st0" d="M127.9,58c.4.2.4.5.3.9-1.7,3.5-3.5,6.6-5.4,9.3-1.9,2.8-3.9,5-5.8,6.7,0,0,0,.2-.2.2l-.2.2c-2.3,2-4.3,3-6,3h0c-1.3,0-2.4-.6-3.3-1.7-.8-1.2-1.1-2.6-1.2-4.4,0-1.8.2-3.8.6-5.9.5-2.1,1.1-4.2,1.9-6.1-.8,0-1.8.2-3.1.3-1.3,0-2.5,0-3.9-.2-1.3-.2-2.3-.7-3-1.5-1.3-1.4-1.9-3-1.7-4.8.2-1.8,1-4.1,2.3-7,.3-.7.8-1.2,1.7-1.4.8-.2,1.5,0,2.1.5l.8.7c.7.5,1.1,1.2,1.3,2,.2.8,0,1.6-.3,2.4-.5,1.1-1,2.3-1.4,3.6s-.5,2.2,0,2.9c.3.5,1,.7,2,.7s2.6-.2,4.1-.7,2.9-1,4.1-1.4c.7-.3,1.4-.2,2,.4.6.5.8,1.2.5,2-.8,1.9-1.4,3.9-1.9,6.1s-.9,4.1-1.1,5.9,0,3,.3,3.8c.2.3.3.5.5.5h1c.3,0,.6-.3.9-.5,1.8-1.5,3.7-3.6,5.8-6.4,2.1-2.8,4-6,5.8-9.8.2-.4.5-.5.9-.3h-.3Z"/>
  <path class="st0" d="M155.1,58.1c.3.3.4.6.2,1-3.7,4.8-6.8,8.5-9.5,11-2.6,2.5-5.1,4.2-7.5,5.1h0c-1.5.5-2.8.7-4.1.7s-2.1-.3-3.4-.9c-1.3-.6-2.5-1.7-3.5-3.1-.8-1.2-1.4-2.9-1.7-5.1-.4-2.2,0-5,1.4-8.5,2.2-5.8,4.7-9.8,7.5-12.2,2.8-2.3,5.2-3.5,7.2-3.5s3.6.9,4.6,2.7c.1.2.2.4.3.5,0,.2.2.4.2.7.1.4.2.7.2.9.1.6.1,1.3,0,2.2-.2.8-.5,1.7-1,2.8-1.1,2-2.5,3.6-4.2,4.7-1.7,1.2-3.4,2-4.9,2.5s-2.6.8-3.2.9c-.9,2.6-1.3,5-1.3,7.3s.6,3.9,1.5,5.1c1,1.2,2.4,1.6,4.1,1.1h.1c1.9-.7,4.2-2.2,6.7-4.6,2.5-2.3,5.7-6.1,9.5-11.2.3-.3.6-.4.9-.2h-.1ZM134.3,58.9l-.2.3c.8-.2,1.9-.5,3.3-1,1.3-.5,2.7-1.3,4.1-2.3,1.4-1,2.5-2.3,3.3-3.9,1-1.8,1.2-3.4.7-4.8l-.5-.7c-.5-.3-1-.3-1.6,0-1,.3-2.2,1.3-3.8,3.1-1.5,1.7-3.3,4.9-5.3,9.5v-.2Z"/>
  <path class="st0" d="M226.5,20.9c-.3-.3-.3-.6,0-.9,1.2-1.3,2.1-2.9,2.6-4.6.5-1.8.6-3.3.2-4.7,0-.3-.3-.5-.8-.6-.8-.3-2.2,0-4,.5-1.8.6-3.8,1.7-6.1,3.1s-4.6,3.3-6.9,5.7c-4.9,5-7,9.1-6.3,12,.3,1.4,1.2,2.4,2.8,2.9,1,.2,1.9.4,2.8.5.8,0,1.7,0,2.8.2h.3v.2h0v.4h0v.3h0c-1.2.5-2.9,1.5-5,2.9-2.1,1.4-4.2,3.3-6.2,5.6-1.8,1.9-3.6,4.3-5.4,7.3-1.8,3-3,6.3-3.4,10.1-.6,5.2.2,9,2.2,11.6.8,1.1,1.7,1.8,2.6,2,.9.2,1.4.3,1.4.3,7.1-.4,16.1-6.3,27-18,.4-.4.7-.4.9,0,.4.3.4.6,0,.9-11.7,12.3-21.3,18.4-28.8,18.4s-7.5-1.1-9.6-3.4c-2.4-2.5-3.4-6.6-3-12.1.3-3,1.3-6.1,3.1-9.6,1.8-3.4,4.1-6.5,7-9.2l.5-.5c1.5-1.4,3-2.8,4.6-4.2s3.5-2.4,5.5-3.1c-1-.3-1.9-.7-2.9-1.1-.9-.5-1.8-1.1-2.5-1.9-1.5-1.6-2.1-3.5-1.9-5.8.3-2.3,1-4.4,2.2-6.3s2.6-3.6,4.2-5.1c1.6-1.5,3-2.6,4.2-3.5,2.6-1.7,5.3-3.2,8.1-4.2,2.8-1.1,5.1-1.6,6.8-1.5,2.5.2,4.2,1.4,5,3.6v.6h0c.5,1.7.4,3.5-.1,5.5-.6,2-1.6,3.7-3,5.1-.3.3-.6.3-1,0v.6Z"/>
  <path class="st0" d="M251.8,58c.4.2.4.5.3.9,0,.2-.5,1-1.3,2.5s-1.8,3.3-3.1,5.5c-1.2,2.1-2.6,4.3-4.1,6.5s-3,4-4.6,5.5c-1,1-2,1.7-2.8,2.2-.8.4-1.6.5-2.7.5s-1.6-.2-2.5-.5c-.6-.3-1.3-.7-2-1.3-.7-.6-1.3-1.5-1.8-2.7-1.7-4.9-1.8-13,0-24.2,1.2-8,2.7-15.1,4.5-21.5,1.8-6.4,3.8-11.7,5.9-15.8,2.2-4.1,4.4-6.8,6.6-8,1.7-.8,3.3-.9,4.8-.2,1.4.7,2.2,1.9,2.5,3.6h0c.4,2,.2,4.4-.4,7.3-.6,2.9-1.6,6-2.9,9.3-1.3,3.3-2.8,6.7-4.5,10s-3.4,6.4-5.2,9.2-3.4,5-5,6.7h0c-.8,4.8-1.2,8.7-1.4,11.9-.1,3.1,0,5.6.2,7.4.3,1.8.6,3.2,1.1,4s.9,1.4,1.4,1.7c.8.4,1.5.4,2.3,0l1.2-.6h.1c1.4-1.5,2.9-3.3,4.4-5.4,1.5-2.2,2.9-4.3,4.1-6.5,1.3-2.2,2.3-4,3-5.4l1.2-2.2c.2-.4.5-.5.9-.3h-.2ZM234.5,47.9l-.6,3.1c1.5-1.9,3-4.2,4.6-6.9s3.2-5.6,4.7-8.7c1.5-3.1,2.9-6.2,4-9.3,1.2-3.1,2-5.9,2.5-8.5s.7-4.7.4-6.4c-.1-.5-.5-.7-1-.7-.8,0-1.7.6-2.9,1.7-1.1,1.2-2.4,3.1-3.7,5.9s-2.7,6.6-4.2,11.4c-1.4,4.8-2.8,10.9-4,18.3h.2Z"/>
  <path class="st0" d="M284.9,58.3c.2.4.2.7-.2.9,0,0-.8.5-2.3,1.3s-3.3,1.4-5.4,1.9c-.7,0-1.3.2-2,.3-.6,0-1.3,0-1.9,0s-1.2,0-1.7,0c-.5,0-1.1-.2-1.6-.2-.8,2.1-1.9,4-3.2,5.8-1.3,1.8-2.9,3.1-4.7,3.9-1.1.6-2.2.8-3.4.8-1.8,0-3.4-.6-4.8-1.7-1.2-1-2.2-2.6-2.9-4.8-.8-2.2-.7-4.8.1-8,1-3.6,2.3-6.6,3.9-9.1s3.3-4.2,5.2-5.2,3.9-1.1,6-.3c3.3,1.2,5.1,4.2,5.4,9.1,0,1.3,0,2.6-.2,3.9-.2,1.4-.5,2.8-1,4.2,1.6.4,3.3.4,4.9.2s3.1-.6,4.4-1.1,2.4-1,3.2-1.4c.8-.4,1.2-.7,1.2-.7.1,0,.3-.2.5,0,.2,0,.3,0,.4.3h.1ZM263.1,69.7c1.2-.9,2.2-2.1,3.1-3.4.9-1.4,1.6-2.8,2.2-4.3h-.3c-1.9-.7-3.6-1.9-5.1-3.7-1.1-1.3-1.9-2.6-2.3-3.7-.4-1.2-.6-2.2-.7-3.1-1.4,1.8-2.5,4.2-3.2,7-.8,3.2-1,5.8-.4,7.8.6,1.9,1.4,3.2,2.4,3.9,1.4,1,2.8.9,4.4-.3v-.2ZM268.9,60.6c.4-1.3.8-2.6,1-3.9.2-1.3.3-2.6.2-3.7,0-.6,0-1.3-.2-2.1s-.4-1.6-.8-2.4c-.5-1.3-1.5-1.9-2.8-1.7h-.7c-.2.5-.4,1.3-.5,2.5-.2,1.1-.3,2.4-.2,3.8,0,1.4.3,2.7.8,4,.7,1.7,1.7,2.9,3.1,3.4h.3-.2Z"/>
  <path class="st0" d="M315.8,58.1c.4-.4.7-.4,1,0,.2.3.2.6-.1.9-.5.5-1.3,1.3-2.5,2.3-1.1,1.1-2.5,2.2-4.1,3.6-1.5,1.3-3.2,2.6-4.9,3.8-1.7,1.2-3.4,2.2-5.1,3s-3.1,1.2-4.5,1.2h-.3c-1.7,0-3-.8-3.7-2.1-.4-.6-.6-1.4-.7-2.3v-.2c-.1-1.4,0-2.8.5-4.2.4-1.4.9-2.5,1.4-3.4s.8-1.4.8-1.5c.3-.4.6-.5.9-.3.4.2.4.5.2.9l-.7,1.4c-.4.9-.9,2-1.3,3.3-.4,1.3-.6,2.5-.5,3.7,0,.2.2.4.2.8s.3.5.5.6c.5,0,1.2-.4,2.2-1.3s2-2.2,3.1-3.8c1.1-1.6,2.1-3.5,3.1-5.6,1.6-3.4,2.5-6.4,2.7-8.9.2-2.6,0-4.1-.3-4.5s-.8-.5-1.6-.3c-.7.2-1.3.4-1.8.7h0c-1.4,1.3-2.9,2.9-4.6,4.9s-3.2,4.1-4.5,6.4c-1.3,2.3-2.3,4.5-2.7,6.7-1.2,6.1-2.2,13.1-3.1,21-.8,7.9-1.3,16.1-1.3,24.8s-.2,1.3-.7,1.8c-.4.5-1,.8-1.7.8-1.1,0-2-.4-2.8-1.2-1-1.1-1.5-2.4-1.5-3.9,0-4.9.3-10.2.7-15.9.4-5.7,1-11.5,1.9-17.4.8-5.9,1.9-11.6,3.1-17,1.3-5.4,2.7-10.2,4.3-14.4.3-.7.8-1.1,1.5-1.3.7,0,1.4,0,1.9.7l1,1.3c1.2,1.4,1.5,3.1.8,4.8-.4,1.2-.9,2.5-1.3,3.9s-.8,3-1.2,4.7c.7-1.1,1.4-2.2,2.1-3.3.8-1.1,1.6-2.2,2.5-3.3.7-.8,1.4-1.7,2.3-2.5s1.7-1.6,2.5-2.3l.2-.2c.8-.7,1.6-1.2,2.4-1.6.7-.4,1.4-.7,1.9-.7,2,0,3.5.7,4.5,2.2,2.1,2.9,1.7,8.1-1.1,15.5-.8,2-1.6,3.7-2.4,5.1s-1.6,2.6-2.4,3.5c2.1-1.3,4.3-3,6.7-4.9,2.4-2,4.5-3.9,6.5-5.8v-.2Z"/>
  <path class="st0" d="M317.6,74.6c-1.1-.4-1.9-1.1-2.5-2.4-.7-1.6-1-3.6-.8-6.2s.5-5.2,1.1-8.1c.6-2.8,1.3-5.4,2-7.8.7-2.4,1.4-4.2,1.9-5.4.2-.6.6-1,1.2-1.2.7,0,1.2,0,1.7.3l1.5.9c.7.4,1.1,1.1,1.4,1.9.2.8.2,1.5,0,2.2-1,2.2-1.9,4.9-2.9,8.1-.9,3.1-1.5,6.1-1.9,8.8-.2,2.1-.1,3.7.2,4.8.3,1.1.6,1.7.9,1.9.1,0,.3,0,.5,0h.1c1.3-1,2.6-2.3,3.9-4.1,1.3-1.7,2.5-3.5,3.6-5.4s1.9-3.4,2.4-4.5c0,0,.2-.2.3-.3h.5c.4.2.6.5.4.9,0,0-.5.9-1.4,2.7s-2.1,3.7-3.5,5.8c-3.3,4.8-6.4,7.2-9.1,7.2s-.5,0-.7,0-.4,0-.7-.2h-.1ZM325.1,41.6l-1.1-.6c-.7-.4-1.2-.9-1.5-1.7-.2-.7-.2-1.4.1-2.2l2.3-4.9c.3-.5.7-.8,1.3-1,.5-.2,1.1-.2,1.7.2h.3c1.2.7,2,1.5,2.5,2.6.2,1.1,0,2.2-.4,3.3l-2.1,3.6c-.3.7-1,1-1.9,1s-.4,0-.5,0c-.2,0-.4,0-.6-.2h0Z"/>
  <path class="st0" d="M363,58c.2,0,.3.2.4.3v.5c-.5,1.7-1.3,3.5-2.2,5.4-.9,2-1.9,3.8-3,5.4s-2.1,2.8-3.1,3.6h-.2c-.3.5-.8.9-1.3,1.3-.6.4-1.3.6-2.2.6s-1.3-.2-2.2-.5c-1.2-.5-2-1.1-2.4-2-.4-.8-.5-1.9-.5-3.3,0-2.1.4-4.5,1-7.3s1.3-5.6,2.1-8.3c.8-2.8,1.5-5.1,2.2-7l.8-2.7c.4-1.3.4-2.1,0-2.5-.2,0-.5,0-.8,0-.4,0-.7,0-1,.3-.4.3-.8.6-1.2.9-.4.3-.8.7-1.2,1.2-1.4,1.4-2.8,3.1-4.1,4.9-1.3,1.9-2.4,3.8-3.4,5.8-1,1.9-1.8,3.7-2.4,5.3s-.8,2.8-.8,3.6c0,1.4.1,2.8.2,4.1,0,1.3.2,2.3.3,3.2,0,.5,0,.9-.5,1.2-.2.4-.6.5-1.1.5h-.7c-1.6-.2-2.6-1.1-3-2.6-.4-1.9-.7-4.2-.9-6.6-.2-2.5-.2-5-.2-7.6s.2-5,.4-7.3c.2-2.3.5-4.2.9-5.7.2-.5.5-.8.9-1,.5-.2.9,0,1.4,0l1.6,1c.6.4,1.1.9,1.3,1.5.3.7.3,1.3.2,2-.3,1.6-.5,3.4-.7,5.6-.1,2.2-.2,4.4-.3,6.6,1-2.5,2.4-5.2,4.2-8.1,1.8-3,3.6-5.4,5.6-7.5,2.2-2.2,4.2-3.4,5.9-3.4s2.5.6,3.4,1.9c.8,1.3,1.3,2.6,1.5,4.1,0,.5-.1,1.4-.5,2.8-.4,1.4-.9,3.2-1.5,5.5-.4,1.6-.9,3.4-1.4,5.3-.5,1.9-1,3.7-1.4,5.5-.4,1.8-.6,3.4-.8,4.7-.1,1.3,0,2.3.3,2.8s.5.6.7.4c.3,0,.6,0,.8-.3h.2c.7-.6,1.6-1.6,2.5-3,1-1.4,1.9-3,2.9-4.9s1.8-3.9,2.5-5.9c.2-.4.5-.5.9-.3h0Z"/>
  <path class="st0" d="M400.6,58.1c.4.2.4.5.2.9-1.7,2.2-3.9,4.4-6.5,6.6-2.6,2.1-5.4,4.3-8.5,6.4-.9,5.7-2,11.2-3.2,16.4-1.2,5.3-2.5,9.9-4,14-1.4,4.1-3,7.3-4.7,9.6-3,3.7-5.8,5.8-8.6,6.4-.7,0-1.3.2-1.9.3-.6,0-1.2.2-1.8.2-1.6,0-2.9-.2-4.1-.7-1.2-.4-2.2-.9-3-1.4-1.2-.8-2.2-1.8-2.9-2.8-.8-1-1.2-1.9-1.4-2.6-.4-1.2-.4-2.5-.3-3.8.5-3.3,1.6-6.4,3.4-9.3s3.9-5.7,6.5-8.3c2.6-2.6,5.5-5.1,8.6-7.5,3.2-2.4,6.3-4.7,9.5-6.8.5-2.9.9-5.7,1.4-8.6.4-2.9.8-5.6,1.2-8.2-1.2,1.7-2.6,3.7-4.4,5.9-1.7,2.2-3.5,4-5.4,5.3h-.1c-.7.5-1.3.8-2,1.1-.4.2-.9.4-1.4.5s-1,.2-1.5.2c-1.5,0-2.7-.4-3.6-1.3-2.1-1.9-2.3-5.3-.7-10.1,1.2-3.8,2.8-6.9,4.6-9.2,1.9-2.3,3.8-4,5.6-5,1.8-1,3.3-1.4,4.3-1.1,2,.4,3.6,1.8,4.7,4.3l.2.3.5,1.7c.2-1.9.4-3.7.6-5.4.2-1.6.3-3.1.3-4.2.1-1.3.8-2.2,1.9-2.5,1.3-.4,2.4,0,3.1.8l.3.3c1.5,1.7,2,4.1,1.7,7.2-.4,3.5-.9,7.2-1.4,11s-1,7.6-1.6,11.3c2.9-2,5.5-4,7.8-5.9,2.3-2,4.3-4,5.8-6.1.2-.3.5-.3.9,0h-.1ZM368.1,109.7c1.3-1.8,2.5-4.4,3.6-7.7,1.1-3.3,2.2-7,3.1-11.2,1-4.2,1.9-8.6,2.7-13.1-4,2.8-7.9,5.7-11.8,8.8-3.8,3.1-7,6.4-9.7,9.9s-4.3,7.4-4.9,11.5c-.2,1.1-.1,2.2.2,3.3h0c.3,1,.8,1.8,1.5,2.6,1.8,1.6,4,2.1,6.6,1.5.8,0,2.1-.6,3.8-1.4,1.7-.8,3.3-2.2,4.8-4.3h0ZM380.6,56.1h.1c-.1,0-.2-.3-.2-.4,0-1.1-.2-2.1-.4-3-.2-.9-.5-1.7-.8-2.5-.2-.4-.6-.8-1.2-1.2-.6-.3-1.1-.4-1.7-.3-.4,0-1,.6-2,1.5-1,1-2,2.3-3.2,4.1-1.1,1.8-2.1,3.9-2.9,6.3-.8,2.2-1.2,4.1-1.1,5.7,0,1.5.4,2.6.9,3.1.4.4.9.3,1.7-.2,1.5-1,3-2.4,4.4-4.1,1.4-1.7,2.7-3.4,3.9-5.1,1.2-1.7,2-2.9,2.5-3.8h0Z"/>
  <path class="st0" d="M407.4,22.4h2.2c.5,0,1,.2,1.3.7.4.4.6.9.5,1.5l-5.4,41.6c0,.5-.2.9-.7,1.2-.4.3-.7.4-1,.4s0,0-.1,0h-.7c-.6-.2-1.1-.5-1.5-1.1-.4-.5-.6-1.1-.5-1.7l3-39.4c0-.8.3-1.5.9-2.1s1.2-.8,2-.8v-.3ZM402.2,71l1.2.2c.5,0,.8.2,1.1.5.3.5.4,1,.4,1.4l-.2,1.8c-.2.9-.6,1.6-1.2,2-.4.4-1,.6-1.6.6h-1.3c-.4-.2-.8-.4-1-.7-.3-.4-.4-.8-.3-1.2l.2-2.1c0-.8.4-1.4,1-1.9.5-.4,1.1-.6,1.7-.5h0Z"/>
</svg>