<?xml version="1.0" encoding="UTF-8"?>
<svg id="Layer_1" xmlns="http://www.w3.org/2000/svg" version="1.1" viewBox="0 0 254 79">
  <!-- Generator: Adobe Illustrator 29.8.1, SVG Export Plug-In . SVG Version: 2.1.1 Build 2)  -->
  <defs>
    <style>
      .st0 {
        fill: #ae2012;
      }
    </style>
  </defs>
  <path class="st0" d="M31.3,37.8c.2.2.3.3.1.5-.8,1.5-1.7,2.9-2.6,4.4s-1.8,2.7-2.7,3.8c-.9,1.1-1.7,1.8-2.5,2.2h-.1c-.2.2-.7.3-1.6.3s-1.2,0-1.7-.3c-.8-.3-1.3-.7-1.6-1.5-.3-.8-.4-1.8-.4-2.9s.3-2.6.8-4.5,1.1-4.5,1.9-7.7v-.5c1.4-4.9,2.2-8.9,2.6-11.8.3-2.9.4-4.7.1-5.5-.4-.8-.8-1.3-1.1-1.5h-.8c-1.1.6-2.1,1.5-3,2.8s-1.7,2.7-2.4,4.3c-.7,1.6-1.1,3.2-1.4,4.6-.7,5.3-1.4,9.4-2.1,12.3-.7,2.9-1.1,4.7-1.3,5.4-.2.6-.4,1-.8,1.3-.2.2-.5.4-.8.6-.3.2-.7.4-1,.5h-.3c-.2,0-.5,0-.6-.3-.2-.2-.3-.5-.2-.9.5-1.4,1.1-3.1,1.5-5.3.5-2.2.9-4.5,1.3-7.1.4-2.6.8-5.2,1.1-7.9.3-2.6.5-5.1.7-7.5.2-2.3.3-4.3.3-5.9s.2-.7.5-.8c.2,0,.3-.1.5-.1s.4,0,.6.1l1,.6c.4.2.7.6.9.9.2.3.3.7.2,1.2-.1,1.5-.3,2.9-.4,4.2-.1,1.4-.3,2.7-.4,4,.7-1.7,1.5-3.3,2.6-4.7,1-1.5,2.1-2.5,3.3-3.1h.1c1.3-.6,2.4-.6,3.5,0,.8.4,1.4,1.1,1.7,2.2.3,1.1.4,2.3.4,3.8s-.2,3.1-.5,4.8c-.3,1.7-.6,3.3-1,5s-.7,3.2-1,4.6l-.6,2.4c-.1.6-.3,1.3-.5,1.9-.2.6-.3,1.3-.5,1.9-.4,1.4-.7,2.7-1,4.1-.3,1.3-.4,2.5-.4,3.4s.3,1.5.9,1.7c.4,0,.9,0,1.6-.5s1.6-1.4,2.7-2.9,2.6-3.8,4.3-6.8c.1-.2.3-.3.5-.2l-.4.4Z"/>
  <path class="st0" d="M31.8,47.1c-.6-.2-1.1-.6-1.4-1.3-.4-.9-.5-2-.5-3.4s.3-2.9.6-4.5c.3-1.6.7-3,1.1-4.4.4-1.3.8-2.3,1.1-3,0-.3.3-.6.6-.6s.7,0,.9.1l.8.5c.4.2.6.6.8,1,0,.4,0,.9,0,1.3-.5,1.2-1.1,2.7-1.6,4.5-.5,1.7-.9,3.4-1,4.9,0,1.2,0,2.1,0,2.7.2.6.3,1,.5,1.1h.3c.7-.5,1.5-1.3,2.2-2.3s1.4-2,2-3,1.1-1.9,1.4-2.5c0,0,0,0,.2-.2h.3c.2,0,.3.3.2.5,0,0-.3.5-.8,1.5s-1.2,2.1-1.9,3.2c-1.9,2.7-3.5,4-5.1,4s-.3,0-.4,0h-.4ZM36.1,28.7l-.6-.3c-.4-.2-.7-.5-.8-.9s0-.8,0-1.2l1.3-2.7c.2-.3.4-.5.7-.6s.6,0,1,0h0c.6.4,1.1.8,1.4,1.5,0,.6,0,1.2-.2,1.8l-1.2,2c-.2.4-.5.6-1.1.6s-.2,0-.3,0h-.3v-.2Z"/>
  <path class="st0" d="M57.1,37.8c0,0,.2,0,.2.2v.3c-.3.9-.7,1.9-1.2,3s-1.1,2.1-1.7,3c-.6.9-1.2,1.6-1.7,2h0c-.2.3-.4.5-.7.7s-.7.3-1.2.3-.7,0-1.2-.3c-.7-.3-1.1-.6-1.3-1.1s-.3-1.1-.3-1.8c0-1.1.2-2.5.6-4.1.3-1.6.7-3.1,1.2-4.6s.9-2.8,1.2-3.9l.5-1.5c.2-.7.2-1.2,0-1.4h-.5c-.2,0-.4,0-.5.1-.2.1-.4.3-.6.5-.2.2-.4.4-.7.7-.8.8-1.5,1.7-2.2,2.7-.7,1.1-1.4,2.1-1.9,3.2-.6,1.1-1,2.1-1.3,2.9-.3.9-.5,1.6-.5,2,0,.8,0,1.6,0,2.3,0,.7,0,1.3.2,1.8,0,.3,0,.5-.3.6,0,.2-.3.3-.6.3h-.3c-.9,0-1.4-.6-1.7-1.5-.2-1.1-.4-2.3-.5-3.7,0-1.4,0-2.8,0-4.2,0-1.4,0-2.8.2-4.1,0-1.3.3-2.3.5-3.2,0-.3.3-.5.5-.6h.8l.9.6c.3.2.6.5.7.8,0,.4.2.8,0,1.1-.2.9-.3,1.9-.4,3.1,0,1.2,0,2.4-.2,3.7.6-1.4,1.4-2.9,2.3-4.5,1-1.7,2-3,3.1-4.2,1.3-1.2,2.4-1.9,3.3-1.9s1.4.4,1.9,1.1.8,1.5.8,2.3,0,.8-.3,1.6c-.2.8-.5,1.8-.8,3.1-.2.9-.5,1.9-.8,2.9s-.5,2.1-.8,3.1c-.2,1-.4,1.9-.5,2.6,0,.7,0,1.3.2,1.6,0,.3.3.4.4.3.2,0,.3,0,.5-.2h0c.4-.3.9-.9,1.4-1.6.5-.8,1.1-1.7,1.6-2.8s1-2.2,1.4-3.3c0-.2.3-.3.5-.2l-.2.2Z"/>
  <path class="st0" d="M75,37.8c.2,0,.3.2.3.5,0,0,0,.4-.3,1-.2.7-.4,1.5-.7,2.6-.3,1-.6,2.1-.9,3.3-1.6,4.5-3.1,6.8-4.7,6.8h-.2c-.8,0-1.5-.6-2-1.5-.5-.8-.8-1.7-1-2.8s-.3-2.3-.3-3.5v-3.3c-.2.6-.5,1.2-.8,1.7s-.6.9-.8,1.3h0s-.2,0-.2.2c-.6.8-1.2,1.5-1.9,1.8-.6.4-1.2.5-1.8.5s-.4,0-.5,0c-.2,0-.6-.2-1-.4-.5-.2-.9-.6-1.3-1.2-.3-.6-.6-1.5-.8-2.7s0-2.9.5-5c.5-1.7,1.1-3,1.7-4,.7-1,1.3-1.7,2-2.2s1.3-.8,1.7-1c1.1-.4,2-.5,2.9-.1,1,.5,1.6,1.4,1.9,2.6h0c.3-1,.6-2,1-3,.4-.9.7-1.8,1.1-2.4.2-.3.5-.5.8-.5s.7.1,1,.4l.8.7c.4.3.7.8.8,1.2,0,.5,0,.9,0,1.3-.7,1.8-1.4,3.8-2,6s-1,4.4-1.3,6.6c-.3,2.5-.4,4.3-.3,5.4,0,1.1.3,1.7.5,1.8.4.2.7.2,1,0s.5-.4.6-.6c.5-.9,1-2,1.5-3.3s.9-2.7,1.3-4.1c.4-1.4.7-2.7.9-3.9,0-.2.2-.3.5-.2ZM66.5,34.6c0-.7,0-1.3-.3-1.9,0-.3-.3-.5-.5-.8s-.5-.4-.8-.5c-.2,0-.6,0-1.2.4-.6.3-1.1.9-1.7,1.8-.6.9-1,2.3-1.4,4.1-.4,1.9-.6,3.4-.6,4.3s0,1.5.3,1.8.4.5.5.6c.2,0,.5.2.9,0,.4,0,.8-.4,1.2-1,1-1.4,1.9-3.3,2.7-5.9,0-.5,0-1.1.2-1.6,0-.5.2-1,.3-1.5l.4.2Z"/>
  <path class="st0" d="M111.9,34.8c.2,0,.3.2,0,.5-.6,1.1-1.2,2.2-1.8,3.1-.6,1-1.1,1.9-1.7,2.7.9,1.5,1.4,2.9,1.6,4.5s0,3-.8,4.5c0,0-.2.2-.3.2h-.2c-.2,0-.2-.3,0-.5,1.2-2.4,1-5-.6-7.9-2.6,3.7-4.9,6-7,6.8-1.1.4-2.1.6-3.2.6s-2.4-.3-3.4-.9c-.5-.4-.9-.9-1.4-1.7-.4-.8-.6-1.9-.5-3.3,0-1.1.5-2.4,1.1-3.7.7-1.4,1.5-2.8,2.4-4.3,1-1.5,1.9-2.9,3-4.3-.9-1.7-1.4-3.3-1.6-5s0-3.1.2-4.4c.7-2.7,2.3-4.4,4.7-5,1.1-.3,2-.4,2.7-.1.7.2,1.2.5,1.6.8,1.1.9,1.6,2.4,1.4,4.4s-1.4,4.2-3.4,6.8c-.4.6-.9,1.2-1.5,2s-1.2,1.6-1.8,2.6l.9,1c1.1,1,2.1,2.1,3.1,3.2,1,1.1,1.8,2.2,2.5,3.2,1.1-1.6,2.2-3.4,3.3-5.5,0-.2.3-.3.5,0l.2-.2ZM100.9,47.9c2.1-.9,4.3-3.1,6.7-6.7-1.2-1.9-3.1-4.1-5.7-6.6,0,0-.3-.3-.4-.4,0-.2-.3-.3-.4-.5-1,1.4-1.9,2.8-2.7,4.3-.8,1.5-1.5,3-2,4.3-.5,1.4-.6,2.5-.5,3.5,0,.8.5,1.3,1.1,1.8,1,.6,2,.8,3.2.5h.6q0-.2.1-.2ZM98.5,21.8c-.3,1.2-.4,2.5-.2,4,.2,1.5.6,3,1.4,4.5.2-.3.5-.6.6-.9.2-.3.4-.6.7-.9.8-1.1,1.6-2.2,2.3-3.1.7-.9,1.1-1.7,1.3-2.2.5-1.2.8-2.3.7-3.3,0-1-.2-1.7-.6-2.1,0-.2-.3-.3-.5-.5s-.5-.2-.8-.2l-.7.2c-2.2.6-3.6,2.1-4.2,4.5Z"/>
  <path class="st0" d="M153,37.9c.2,0,.4,0,.5,0,.2.2.1.4,0,.6-.6.4-1.4.7-2.5.8s-2.4.2-3.9.3c-1,1.9-2.1,3.8-3.4,5.5-1.4,1.8-2.7,3.3-4.1,4.4-1.3,1.1-2.6,1.8-3.8,2.1s-.9.2-1.3.2c-1.2,0-2.3-.5-3.2-1.4s-.6-.7-.8-1.1h0c-.4-.9-.5-1.9-.2-3.1.3-1.1.9-2.2,1.9-3.4s2.6-2.2,4.7-2.8c1-.4,2.1-.6,3.2-.8,1.1,0,2.2-.3,3.3-.3,1-2.1,1.9-4.4,2.7-7.1,1.1-3.8,1.9-7,2.2-9.6.4-2.6.5-4.6.3-6-.2-1.5-.4-2.4-.9-2.9-.3-.3-.6-.4-1-.4h-.4c-1.8.6-3.6,1.5-5.4,3-1.8,1.5-3.3,3.3-4.4,5.3-.2.2-.3.3-.5.1-.2,0-.3-.3-.2-.5.8-1.4,1.8-2.7,2.9-3.8,1.1-1.2,2.3-2.2,3.6-3s2.6-1.4,3.8-1.7h.4c1.5-.4,2.8-.2,3.8.5.8.6,1.3,1.5,1.6,2.9.2,1.4.3,2.9.1,4.7s-.4,3.6-.8,5.5c-.4,1.9-.8,3.6-1.2,5.2-.4,1.6-.7,2.8-1,3.7-.2.6-.4,1.3-.7,1.9-.2.7-.5,1.3-.9,2,1.3,0,2.4,0,3.4-.2,1,0,1.7-.4,2.2-.7h0ZM133.5,49.4c1.4-.4,2.9-1.4,4.6-2.9,1.7-1.6,3.3-3.8,4.8-6.6-1,0-2,.2-2.9.3-1,.2-1.9.4-2.9.7-1.9.6-3.3,1.5-4.3,2.6s-1.6,2.2-1.8,3.1c-.2.9-.2,1.7.1,2.4.5.5,1.3.6,2.3.4h0Z"/>
  <path class="st0" d="M171.6,38c.1.2,0,.4,0,.5,0,0-.5.3-1.3.7s-1.8.8-3,1c-.4,0-.8,0-1.1.2h-2c-.3,0-.6,0-.9,0-.4,1.2-1,2.2-1.8,3.2-.7,1-1.6,1.7-2.6,2.2-.6.3-1.2.5-1.9.5-1,0-1.9-.3-2.7-1-.7-.6-1.2-1.5-1.6-2.7-.4-1.2-.4-2.7,0-4.4.6-2,1.3-3.7,2.2-5.1.9-1.4,1.8-2.4,2.9-2.9,1.1-.5,2.2-.6,3.4-.2,1.9.7,2.9,2.4,3.1,5.1,0,.7,0,1.5-.1,2.2,0,.8-.3,1.5-.6,2.3.9.2,1.8.2,2.7,0,.9,0,1.8-.3,2.5-.6s1.4-.6,1.8-.8c.5-.2.7-.4.7-.4h.3c.1,0,.2,0,.2,0h-.2ZM159.5,44.3c.6-.5,1.2-1.1,1.7-1.9.5-.8.9-1.6,1.2-2.4h-.1c-1.1-.4-2-1.1-2.9-2.1-.6-.7-1.1-1.4-1.3-2.1-.2-.6-.3-1.2-.4-1.7-.8,1-1.4,2.3-1.8,3.9-.5,1.8-.6,3.2-.2,4.3.3,1.1.7,1.8,1.3,2.2.8.5,1.6.5,2.4-.2h.1ZM162.7,39.3c.2-.7.4-1.4.5-2.1.1-.7.1-1.4,0-2.1,0-.3,0-.7-.1-1.2,0-.5-.2-.9-.4-1.3-.3-.7-.8-1.1-1.6-1h-.3c-.1.3-.2.7-.3,1.4,0,.6-.1,1.4-.1,2.1s.2,1.5.5,2.2c.4,1,.9,1.6,1.7,1.9h.1Z"/>
  <path class="st0" d="M192.1,37.8c.2,0,.3.3.2.6-.1.2-.4.7-1,1.6-.5.8-1.2,1.8-1.9,2.9-.7,1.1-1.5,1.9-2.2,2.6,0,0-.2.2-.5.5s-.7.6-1.2.9c-.5.3-1,.5-1.5.5s-.6,0-.8-.2c-.4-.2-.8-.5-1.2-.9-.4-.5-.6-1-.7-1.6-.1-.7,0-1.5.1-2.4.2-.9.6-2,1.1-3.4,1.3-3.7,1.7-5.9,1-6.3-.2-.2-.6,0-1,0-.4.2-.7.4-.9.6h0c-.9,1.1-1.8,2.5-2.8,4-.9,1.6-1.8,3.2-2.6,5-.8,1.7-1.5,3.4-2.1,5.1-.6,1.6-.9,3.1-1.1,4.4,0,.9.1,1.7.2,2.5,0,.8.2,1.5.3,2.1,0,.4,0,.7-.4.9-.1,0-.3,0-.5,0s-.2,0-.4,0l-1.1-.8c-.9-.6-1.4-1.4-1.4-2.5s-.1-2.6-.1-4.7.1-4.6.4-7.5c.3-2.9.8-6.1,1.5-9.5.9-4,1.8-7.4,2.8-10.2,1-2.8,1.9-5,2.7-6.7.9-1.7,1.6-3,2.3-3.9.7-.9,1.2-1.6,1.6-1.9.5-.4,1-.7,1.5-.9s1.1,0,1.7.3c.5.3.9.9,1.1,1.9,0,.2.1.5.2.9h0c0,.9,0,2-.1,3.4-.1,1.4-.6,3.2-1.3,5.4-1.8,5.6-5.3,12.2-10.4,19.8,0,0-.1.2-.3.2-.2,1.3-.3,2.7-.4,4,0,1.3-.1,2.6-.1,3.9.5-1.8,1.2-3.6,2.1-5.6.9-1.9,1.9-3.8,2.9-5.6,1.1-1.8,2.1-3.3,3.1-4.6.8-1,1.5-1.7,2.2-2.2.8-.6,1.4-.8,2-.7.5.1,1,.4,1.4.9.7,1.1.8,3.1.3,6.1-.1.8-.3,1.6-.6,2.4-.2.8-.5,1.6-.7,2.3-.2.6-.4,1.3-.6,1.9-.2.7-.4,1.2-.4,1.7s0,.8.2.8h.4c.4,0,.8-.4,1.4-.9h0c.6-.6,1.2-1.3,1.9-2.2s1.3-1.8,1.8-2.6c.5-.9,1-1.6,1.3-2.1.1-.2.3-.3.5-.2h.1ZM174.8,33.4c-.2,1-.5,1.9-.6,2.9-.2,1-.3,2-.5,2.9,2.7-4.1,4.8-7.7,6.4-10.9,1.6-3.1,2.7-5.8,3.4-8,.7-2.2,1.1-4,1.3-5.4.1-1.4.2-2.5,0-3.2,0-.2-.1-.4-.2-.8-.1-.4-.4-.6-.7-.6,0,0-.2,0-.5.2-.2.2-.5.5-.9,1.1s-.8,1.4-1.4,2.6c-.6,1.2-1.2,2.8-2,4.9-.6,1.6-1.2,3.3-1.8,5-.6,1.8-1.1,3.4-1.5,5-.5,1.6-.8,2.9-1.1,4v.3Z"/>
  <path class="st0" d="M209,37.8c.1,0,.2,0,.2.2v.3c-.3.9-.7,1.9-1.2,3s-1.1,2.1-1.7,3c-.6.9-1.2,1.6-1.7,2h-.1c-.2.3-.4.5-.7.7s-.7.3-1.2.3-.7,0-1.2-.3c-.7-.3-1.1-.6-1.3-1.1s-.3-1.1-.3-1.8c0-1.1.2-2.5.6-4.1.3-1.6.7-3.1,1.2-4.6s.9-2.8,1.2-3.9l.5-1.5c.2-.7.2-1.2,0-1.4h-.5c-.2,0-.4,0-.5.1-.2.1-.4.3-.6.5-.2.2-.4.4-.7.7-.8.8-1.5,1.7-2.2,2.7-.7,1.1-1.4,2.1-1.9,3.2-.6,1.1-1,2.1-1.3,2.9-.3.9-.5,1.6-.5,2,0,.8,0,1.6.1,2.3,0,.7.1,1.3.2,1.8,0,.3,0,.5-.3.6-.1.2-.3.3-.6.3h-.3c-.9,0-1.4-.6-1.7-1.5-.2-1.1-.4-2.3-.5-3.7,0-1.4-.1-2.8,0-4.2,0-1.4.1-2.8.2-4.1.1-1.3.3-2.3.5-3.2.1-.3.3-.5.5-.6h.8l.9.6c.3.2.6.5.7.8.1.4.2.8,0,1.1-.2.9-.3,1.9-.4,3.1,0,1.2-.1,2.4-.2,3.7.6-1.4,1.4-2.9,2.3-4.5,1-1.7,2-3,3.1-4.2,1.3-1.2,2.4-1.9,3.3-1.9s1.4.4,1.9,1.1.8,1.5.8,2.3,0,.8-.3,1.6c-.2.8-.5,1.8-.8,3.1-.2.9-.5,1.9-.8,2.9s-.5,2.1-.8,3.1c-.2,1-.4,1.9-.5,2.6,0,.7,0,1.3.2,1.6.1.3.3.4.4.3.2,0,.3,0,.5-.2h0c.4-.3.9-.9,1.4-1.6.5-.8,1.1-1.7,1.6-2.8s1-2.2,1.4-3.3c.1-.2.3-.3.5-.2l-.2.2Z"/>
  <path class="st0" d="M225.9,37.8c.1,0,.2,0,.2.2v.3c-.3.9-.7,1.9-1.2,3s-1.1,2.1-1.7,3c-.6.9-1.2,1.6-1.7,2h-.1c-.2.3-.4.5-.7.7s-.7.3-1.2.3-.7,0-1.2-.3c-.7-.3-1.1-.6-1.3-1.1s-.3-1.1-.3-1.8c0-1.1.2-2.5.6-4.1.3-1.6.7-3.1,1.2-4.6s.9-2.8,1.2-3.9l.5-1.5c.2-.7.2-1.2,0-1.4h-.5c-.2,0-.4,0-.5.1-.2.1-.4.3-.6.5-.2.2-.4.4-.7.7-.8.8-1.5,1.7-2.2,2.7-.7,1.1-1.4,2.1-1.9,3.2-.6,1.1-1,2.1-1.3,2.9-.3.9-.5,1.6-.5,2,0,.8,0,1.6.1,2.3,0,.7.1,1.3.2,1.8,0,.3,0,.5-.3.6-.1.2-.3.3-.6.3h-.3c-.9,0-1.4-.6-1.7-1.5-.2-1.1-.4-2.3-.5-3.7,0-1.4-.1-2.8,0-4.2,0-1.4.1-2.8.2-4.1.1-1.3.3-2.3.5-3.2.1-.3.3-.5.5-.6h.8l.9.6c.3.2.6.5.7.8.1.4.2.8,0,1.1-.2.9-.3,1.9-.4,3.1,0,1.2-.1,2.4-.2,3.7.6-1.4,1.4-2.9,2.3-4.5,1-1.7,2-3,3.1-4.2,1.3-1.2,2.4-1.9,3.3-1.9s1.4.4,1.9,1.1.8,1.5.8,2.3,0,.8-.3,1.6c-.2.8-.5,1.8-.8,3.1-.2.9-.5,1.9-.8,2.9s-.5,2.1-.8,3.1c-.2,1-.4,1.9-.5,2.6,0,.7,0,1.3.2,1.6.1.3.3.4.4.3.2,0,.3,0,.5-.2h0c.4-.3.9-.9,1.4-1.6.5-.8,1.1-1.7,1.6-2.8s1-2.2,1.4-3.3c.1-.2.3-.3.5-.2l-.2.2Z"/>
  <path class="st0" d="M246,37.9c.2,0,.2.3,0,.5-.9,1.2-2.1,2.3-3.5,3.4-1.4,1.1-2.9,2.2-4.6,3.4-.5,3-1.1,5.9-1.8,8.7s-1.4,5.3-2.2,7.5-1.7,3.9-2.7,5.1c-.8,1-1.6,1.8-2.4,2.3-.8.6-1.6.9-2.3,1.1-.4,0-.7,0-1,.2s-.7,0-1,0c-.9,0-1.7,0-2.4-.4-.7-.2-1.3-.5-1.7-.8-.6-.4-1.1-.9-1.5-1.4s-.6-.9-.7-1.3c-.2-.6-.3-1.3-.2-2.1.3-1.8.9-3.4,1.9-5,1-1.5,2.2-3,3.7-4.4s3.1-2.7,4.8-4c1.8-1.2,3.5-2.4,5.3-3.6.3-1.7.6-3.4.8-5.1.3-1.7.5-3.3.7-4.9-.5,1.3-1.1,2.6-1.8,3.8s-1.5,2.2-2.5,2.8c-.6.5-1.3.7-2,.7s-.3,0-.4,0h-.4c-1-.3-1.7-.9-2.2-1.8-.4-.9-.6-2-.6-3.3s.2-2.5.5-3.8.7-2.3,1.1-3.2c.2-.4.5-.7.8-.8.5-.2.9-.1,1.2.2l.6.3c.4.2.6.6.8,1,.1.4.1.8,0,1.2-.6,1.8-1,3.3-1.2,4.6s-.1,2.2.2,2.8c.1.3.3.5.6.6.7.2,1.2,0,1.6-.2.4-.3.6-.5.6-.5h0c.6-.9,1.2-1.9,1.7-3s.9-2.2,1.2-3.3.5-1.9.6-2.6l.3-3.1c0-.6.4-1.1,1.1-1.4.7-.2,1.3-.1,1.7.4v.2c1,.9,1.3,2.2,1.1,3.8-.2,1.9-.5,3.8-.8,5.8s-.6,4-.9,6c1.5-1.1,2.9-2.1,4.2-3.1s2.4-2.1,3.2-3.1c.2-.2.3-.2.5,0v-.2ZM228.1,65.2c.7-.9,1.4-2.3,2-4.1s1.2-3.8,1.7-6,1-4.5,1.5-6.9c-2.2,1.5-4.4,3.1-6.6,4.7-2.1,1.7-3.9,3.4-5.4,5.3-1.5,1.9-2.4,3.9-2.7,6.1,0,.6,0,1.2.1,1.7h0c.2.6.4,1,.8,1.3.9.9,2.2,1.2,3.7.9.5,0,1.2-.4,2.1-.8,1-.4,1.8-1.2,2.7-2.3h0Z"/>
</svg>