<?xml version="1.0" encoding="UTF-8"?>
<svg id="Layer_1" xmlns="http://www.w3.org/2000/svg" xmlns:xlink="http://www.w3.org/1999/xlink" version="1.1" viewBox="0 0 97 124">
  <!-- Generator: Adobe Illustrator 29.7.1, SVG Export Plug-In . SVG Version: 2.1.1 Build 8)  -->
  <defs>
    <style>
      .st0 {
        fill: none;
      }

      .st1 {
        clip-path: url(#clippath-1);
      }

      .st2 {
        clip-path: url(#clippath-2);
      }

      .st3 {
        fill: #fff;
      }

      .st4 {
        clip-path: url(#clippath);
      }
    </style>
    <clipPath id="clippath">
      <rect class="st0" x="9.6" y="49.3" width="36.8" height="31.2"/>
    </clipPath>
    <clipPath id="clippath-1">
      <rect class="st0" x="24.1" y="5.2" width="33.5" height="33"/>
    </clipPath>
    <clipPath id="clippath-2">
      <rect class="st0" x="59.8" y="22.6" width="28.4" height="26.8"/>
    </clipPath>
  </defs>
  <g class="st4">
    <path class="st3" d="M28,59.5c0-.3.1-.4.1-.5.8-3.6,2.8-6.3,5.8-8.4.5-.3,1-.6,1.6-.7.6-.2,1.2-.3,1.8-.2.6,0,1.1.3,1.6.7.3.2.6.3.9.4,2.2.3,3.6,1.5,4.3,3.5,1.2,2.8,1.2,5.7,0,8.6-.4,1-.7,2.1-1.1,3.1,0,.2,0,.4-.2.6-.4,2.4-1.8,4.3-3.3,6.1-.8,1-1.7,1.9-2.5,2.8-1.3,1.5-2.9,2.6-4.6,3.4-.4.2-.8.4-1.2.6-.5.2-1,.3-1.6,0-.9-.2-1.8-.5-2.7-.9-.5-.2-1.1-.4-1.7-.5-2.7-.5-5.1-1.6-7.3-3.3-1.8-1.4-3.6-2.9-5.4-4.3-.7-.6-1.3-1.2-1.8-1.9-1-1.2-1.3-2.7-1.1-4.2.3-1.7.9-3.1,2.2-4.3.9-.8,1.5-1.8,1.8-3,.2-1.1.9-1.9,1.8-2.6,1.1-.9,2.4-1.6,3.8-2,1.1-.3,2.2-.2,3.2.4,1,.6,1.9,1.3,2.6,2.3.8,1.1,1.6,2.3,2.4,3.4.1.2.2.4.5.7h0ZM37.9,56.4c0-.2,0-.7,0-1.1,0-.7-.3-.8-.9-.6-.4,0-.8.2-1.2.4-.3.2-.6.4-1,.6-.7.4-1.3,1-1.7,1.8-.5,1.1-1.1,2.1-1.5,3.1-.5,1.1-1.1,2-1.1,3.2s-.5.8-1,.9-1,0-1.3-.4c-.1-.2-.3-.4-.5-.6-.8-.5-1.4-1.2-2-1.9-.4-.6-.8-1.2-1.2-1.7-.5-.6-1-1.1-1.6-1.7-.8-.8-1.8-1-2.9-.8-.7,0-1.3.3-2,.5-.2,0-.4,0-.5.3s-.2.4-.1.6c0,.9.1,1.7.2,2.6.9,4.8,3.6,8.6,7.3,11.7.3.3.7.4,1.1.5.9.3,1.7.7,2.4,1.4.3.3.7.5,1,.8.5.3.6.3.9-.2.7-1.2,1.4-2.4,2.1-3.6.2-.4.5-.8.7-1.1,2-3.4,3.3-7,4.3-10.8.3-1.2.6-2.4.6-3.8h0ZM13.1,61.4c-.1,0-.3.2-.4.4-.8,1-1.3,2.1-1.4,3.4-.1,1,.1,1.9.8,2.6.5.6,1.1,1.2,1.7,1.8,1.7,1.4,3.4,2.8,5.2,4.2,2,1.6,4.3,2.7,6.9,3.1.3,0,.6,0,1,.2,0-.2-.2-.3-.3-.4-.6-.4-1.1-.8-1.7-1.2-.3-.2-.7-.5-1.1-.6-3.7-1.5-6.6-4-9-7.1-.8-1-1.3-2.2-1.4-3.5,0-.7,0-1.4-.1-2.1v-.7h-.2ZM41.7,57.4s0,.2-.2.2v.3c-.6,4-1.9,7.7-3.9,11.2-.9,1.4-1.7,2.8-2.6,4.3,0,.2-.2.4-.4.7,0,0,.2,0,.3,0,.2,0,.3-.2.5-.4,1.7-1.5,3.3-3.2,4.6-5.1.5-.8,1-1.6,1.4-2.4.5-.9.7-1.9.7-2.9v-2.2c0-1.2-.2-2.3-.4-3.6ZM39.3,54.8h0v.4c.3,1.4,0,2.8-.2,4.1-.8,3.1-1.8,6.1-3,9.1,0,.2-.2.5-.3.8h0s0,0,.2-.2c2.1-3.4,3.5-7,4-11,0-.8,0-1.7,0-2.6s0-.5-.6-.5h-.2ZM15.7,59.8c-.6,1-.8,2-.5,3,.4,1.3,1,2.5,1.8,3.5.2.2.3.4.5.5-.3-1.2-.7-2.3-1-3.4s-.5-2.3-.8-3.7h0ZM32.1,54.5c1.6-1.1,3.4-2,4.9-3.3-1.4-.2-4,1.6-4.9,3.3h0ZM43.4,58.7h0v-.3c0-1.4-.3-2.7-.9-3.9-.3-.7-.7-1.2-1.3-1.6-.2,0-.4-.2-.7-.4,0,.7.3,1.2.8,1.6.5.4.9.9,1.2,1.5.3.7.5,1.5.6,2.3,0,.3,0,.6,0,.9h.1ZM20.9,54.8c-1-.6-1.8-.3-2.1.5l2.1-.5ZM37.9,52.7c.4.5.5.5,1.1.4,0-.8-.4-.9-1.1-.4ZM15.6,57.1q.7-.5.7-1c-.4.2-.6.6-.7,1Z"/>
  </g>
  <path class="st3" d="M53.6,87.4q.2-.2.3-.3c2-2.2,4.5-3.1,7.3-3.4.5,0,.9,0,1.4,0,1,.2,1.7.7,2.1,1.7,0,.2.3.4.5.6,1.4,1,1.8,2.5,1.6,4.1-.3,2.4-1.4,4.4-3.3,5.9-.7.6-1.3,1.1-2,1.7,0,0-.3.2-.4.4-1.2,1.5-3,2.2-4.7,2.9-.9.4-1.9.6-2.8.9-1.5.5-3,.6-4.5.5h-1.1c-.4,0-.8-.2-1.1-.5-.6-.5-1-1-1.5-1.7-.3-.4-.6-.7-1-1-1.6-1.4-2.9-3.1-3.7-5.1-.7-1.7-1.3-3.4-2-5.1-.2-.7-.4-1.3-.5-2-.2-1.3,0-2.4.9-3.3.8-1.1,1.9-1.7,3.2-2,1-.2,1.8-.6,2.4-1.4.6-.6,1.4-1,2.3-1.1,1.1,0,2.3,0,3.4.2.9.2,1.6.7,2,1.5.5.8.8,1.7.9,2.6,0,1.1.2,2.2.3,3.3v.7-.2ZM61.5,89.2c0-.2.2-.5.4-.8.2-.5,0-.7-.4-.8-.3,0-.7-.2-1-.2h-.9c-.7,0-1.3.2-1.9.6-.8.5-1.6,1-2.3,1.5s-1.5,1-2,1.8c-.2.4-.6.3-1,.2-.4,0-.7-.3-.7-.8s0-.4,0-.6c-.3-.7-.5-1.4-.6-2.1s0-1.1-.2-1.6c0-.6-.2-1.2-.4-1.8-.3-.8-.8-1.4-1.6-1.7-.5-.2-1-.3-1.5-.4h-.5c0,0-.3.2-.3.3-.3.6-.6,1.2-.9,1.9-1.3,3.7-1,7.3.3,10.9,0,.3.3.6.5.8.5.5.9,1.2,1.1,1.9,0,.3.2.6.4.9.2.4.3.4.7.2.9-.6,1.9-1.1,2.9-1.6.3-.2.6-.3.9-.5,2.7-1.5,5-3.5,7.2-5.6.7-.7,1.4-1.5,1.9-2.3v-.2ZM42.7,82.7h-.4c-1,.3-1.7.9-2.3,1.8-.5.6-.7,1.3-.5,2.1,0,.7.3,1.3.5,1.9.6,1.6,1.2,3.3,1.9,4.9.7,1.9,1.9,3.5,3.4,4.8.2.2.4.3.6.5v-.4c-.2-.5-.4-1-.7-1.5,0-.3-.3-.6-.5-.9-1.9-2.5-2.9-5.3-3.3-8.4,0-1,0-2,.5-3,.2-.5.5-1,.8-1.5,0,0,0-.3.3-.5l-.3.2ZM63.7,91.4h-.2s0,0,0,.2c-2,2.5-4.4,4.5-7.1,6-1.1.6-2.3,1.2-3.5,1.9-.2,0-.3.2-.5.3h.8c1.8-.3,3.5-.9,5.2-1.6.7-.3,1.3-.7,1.9-1,.7-.4,1.2-1,1.6-1.7.3-.5.6-1,.9-1.5.4-.8.8-1.7,1.2-2.6h-.2ZM63.1,88.6h0v.2c-.4,1-1,2-1.8,2.7-1.8,1.8-3.6,3.5-5.7,4.9-.2,0-.3.2-.5.4h.3c2.8-1.5,5.2-3.4,7.1-5.9.4-.5.7-1.2,1-1.8.2-.3,0-.4-.2-.5h-.2ZM45.1,82.6c-.8.5-1.4,1-1.6,1.8-.2,1-.3,2.1-.2,3.1,0,.2,0,.4,0,.6.3-.9.4-1.8.7-2.7.2-.9.6-1.8.9-2.8h0ZM58.4,85.6c1.5,0,3.1,0,4.6-.3-.9-.7-3.3-.5-4.6.3ZM64.4,93h0s0,0,.2-.2c.5-.9.8-2,1-3,0-.6,0-1.1-.3-1.7,0-.2-.2-.3-.3-.5-.2.5-.3.9,0,1.4.2.5.3,1,.2,1.5,0,.6-.2,1.2-.5,1.8,0,.2-.2.4-.3.7h.1ZM50.6,81.3c-.4-.8-1.1-1-1.6-.5l1.6.5ZM63.1,86.6c0,.5.2.5.6.7.2-.6,0-.7-.6-.7ZM46.1,80.7c.6,0,.7,0,.9-.4-.3,0-.6,0-.9.4Z"/>
  <path class="st3" d="M29.3,107.6v-.2c.6-1.8,1.8-3.1,3.4-4,.3,0,.6-.2.9-.3.7-.2,1.2,0,1.7.4,0,0,.3.2.4.2,1.1.2,1.8,1,2.1,2,.5,1.5.3,3-.3,4.4-.2.5-.5,1-.7,1.6,0,0,0,.2,0,.3-.3,1.2-1.2,2.1-2,3-.5.5-1,.9-1.4,1.3-.7.7-1.6,1.2-2.6,1.6-.2,0-.4.2-.7.2h-.8c-.5,0-.9-.3-1.4-.6-.3,0-.5-.3-.8-.3-1.4-.4-2.6-1.1-3.6-2.1-.9-.8-1.7-1.7-2.6-2.5-.3-.3-.6-.7-.9-1.1-.5-.7-.6-1.4-.4-2.2.2-.9.6-1.6,1.3-2.1.5-.4.9-.9,1.1-1.5.2-.5.5-1,1.1-1.3.6-.4,1.3-.7,2.1-.8.6,0,1.1,0,1.6.4.5.3.9.8,1.2,1.3.4.6.7,1.3,1.1,1.9,0,0,.1.2.2.4h0ZM34.5,106.5v-.6c0-.3,0-.4-.4-.4s-.4,0-.6.2c-.2,0-.3.2-.5.3-.4.2-.7.5-.9.9-.3.5-.7,1-.9,1.6-.3.5-.6,1-.7,1.6,0,.3-.3.4-.5.4s-.5,0-.7-.3c0,0-.1-.2-.3-.3-.4-.3-.7-.7-.9-1.1s-.3-.6-.5-.9-.5-.6-.7-.9c-.4-.4-.9-.6-1.4-.6s-.7,0-1,0-.4.2-.4.4v1.4c.2,2.5,1.4,4.6,3.2,6.4.1,0,.3.3.5.3.5.2.8.5,1.2.8.2.2.3.3.5.5s.3.2.5,0c.4-.6.8-1.2,1.3-1.8.1-.2.3-.4.4-.6,1.2-1.7,2.1-3.5,2.8-5.4.3-.6.4-1.3.5-1.9h-.5ZM21.5,107.9s-.2,0-.2.2c-.5.5-.8,1-.9,1.7-.1.5,0,1,.3,1.4.2.4.5.7.8,1,.8.8,1.6,1.6,2.5,2.4,1,.9,2.1,1.6,3.4,1.9.2,0,.3,0,.5,0,0,0,0-.2-.1-.2-.3-.2-.5-.5-.8-.7-.2,0-.3-.3-.5-.4-1.8-.9-3.2-2.4-4.3-4.1-.4-.6-.6-1.2-.5-1.9v-1.5h-.2ZM36.5,107.2h0v.2c-.5,2-1.4,3.9-2.6,5.6-.5.7-1,1.4-1.6,2.1l-.2.4h.2s.2,0,.3-.2c1-.7,1.9-1.5,2.6-2.4.3-.4.6-.8.8-1.2.3-.4.5-.9.5-1.5s0-.7,0-1.1v-1.9h0ZM35.3,105.8h0c0,.9,0,1.6-.3,2.3-.5,1.6-1.2,3.1-2,4.5,0,0,0,.2-.2.4h0c1.2-1.7,2.1-3.6,2.6-5.6,0-.5,0-.9,0-1.4,0-.2,0-.3-.3-.3h.2ZM22.9,107.2c-.3.5-.5,1-.4,1.5.1.7.4,1.3.7,1.9,0,0,.1.2.2.3,0-.6-.3-1.2-.4-1.8-.1-.6-.1-1.2-.2-1.9h0ZM31.7,105.3c.9-.5,1.8-.8,2.7-1.5-.7-.2-2.1.6-2.7,1.4h0ZM37.3,108h0v-.2c0-.7,0-1.4-.3-2.1,0-.4-.3-.7-.6-.9,0,0-.2-.2-.3-.2,0,.4,0,.6.3.9.3.2.4.5.6.8,0,.4.2.8.2,1.2v.5h0ZM25.8,104.8c-.5-.3-.9-.3-1.1,0h1.1ZM34.7,104.6q.2.3.6.3c0-.4,0-.5-.6-.3ZM23,105.8c.3-.1.4-.3.4-.5-.2,0-.3.3-.4.5Z"/>
  <g class="st1">
    <path class="st3" d="M39.3,19.3c0-.3,0-.4,0-.5-1-3.5-.5-6.9,1.2-10.1.3-.5.6-1,1-1.4.9-1,1.9-1.4,3.2-1.2.3,0,.7,0,1,0,2-.8,3.9-.3,5.5,1.1,2.4,2,3.7,4.5,4.2,7.5,0,1.1.3,2.2.5,3.3,0,.2,0,.4,0,.7.7,2.3.4,4.6,0,6.9-.2,1.2-.6,2.4-.9,3.7-.4,1.9-1.3,3.6-2.4,5.2-.3.4-.5.7-.8,1.1-.3.4-.8.7-1.3.9-.9.3-1.8.4-2.8.5-.6,0-1.2.2-1.7.4-2.6.8-5.3,1-8,.5-2.3-.4-4.6-.8-6.8-1.3-.9-.2-1.7-.5-2.5-.8-1.5-.6-2.4-1.7-3-3.2-.5-1.6-.6-3.2-.1-4.8.4-1.2.5-2.3.1-3.5-.3-1.1-.1-2.1.3-3.2s1.4-2.5,2.5-3.5c.8-.8,1.8-1.2,3-1.2s2.3.3,3.4.8c1.3.6,2.5,1.3,3.7,1.9.2,0,.4.2.7.4h0ZM46.6,12c0-.2-.4-.6-.7-.9-.4-.5-.6-.6-1.1-.1-.3.3-.6.6-.9.9-.2.3-.4.7-.6,1-.5.7-.7,1.5-.6,2.4,0,1.2,0,2.3,0,3.5s0,2.3.5,3.4c.2.5,0,.9-.5,1.2-.4.3-.8.6-1.4.3s-.5-.2-.7-.3c-.9-.1-1.8-.4-2.6-.8s-1.2-.7-1.9-.9c-.7-.3-1.4-.5-2.2-.7-1.1-.3-2.1,0-2.9.6-.5.4-1,.9-1.5,1.4-.2.1-.3.3-.3.5s0,.4.2.6c.4.7.9,1.5,1.4,2.2,3.1,3.8,7.2,5.9,11.9,6.9h1.2c.9-.2,1.8,0,2.7,0,.4,0,.8.2,1.3.2s.6,0,.7-.6c0-1.4,0-2.8,0-4.2v-1.4c0-3.9-.4-7.8-1.3-11.6-.3-1.2-.5-2.4-1.2-3.6h.3ZM27.1,28c0,.2-.1.3-.2.5-.3,1.3-.1,2.5.4,3.7.4.9,1,1.6,1.9,2,.8.3,1.6.6,2.4.8,2.2.5,4.4.9,6.6,1.2,2.6.5,5.1.3,7.5-.5.3,0,.6-.2.9-.3,0,0-.3-.2-.5-.2-.7,0-1.4-.2-2.1-.3h-1.3c-4,.4-7.7-.4-11.3-2-1.2-.5-2.2-1.3-2.9-2.4-.4-.6-.7-1.2-1.1-1.8-.1-.2-.2-.4-.4-.6h0ZM50.4,11v.6c1.4,3.8,2,7.7,1.8,11.7,0,1.7-.2,3.3-.3,5v.8s.2-.2.2-.3c0-.2.2-.4.3-.6.8-2.2,1.4-4.4,1.7-6.7,0-.9,0-1.8,0-2.8s-.2-2-.7-2.9c-.3-.6-.7-1.3-1-1.9-.6-1-1.3-1.9-2-3h0ZM47.1,9.9h0c0,.1,0,.3,0,.3.9,1.1,1.4,2.4,1.7,3.8.8,3.1,1.3,6.2,1.6,9.4v.8h0v-.4c.3-4-.3-7.8-1.6-11.6-.3-.8-.8-1.5-1.3-2.3-.3-.4-.4-.4-.8-.1h.3ZM28.6,25.3c0,1.2.2,2.1,1,2.9s2,1.7,3.2,2.3c.2,0,.5.2.7.2-.8-.9-1.7-1.7-2.5-2.5s-1.5-1.8-2.4-2.9ZM40.6,13c.9-1.7,2.1-3.3,2.8-5.2-1.3.5-2.8,3.2-2.8,5.2ZM52.5,11.4h0c0-.2,0-.3,0-.4-.7-1.2-1.6-2.2-2.6-3-.6-.5-1.2-.7-2-.8h-.8c.5.6.8.9,1.4,1,.7.1,1.2.4,1.8.7.6.5,1.2,1.1,1.6,1.7.2.3.4.5.5.7h.2ZM30.8,18.5c-1.1,0-1.8.5-1.6,1.4l1.6-1.4ZM44.8,8.6c.6.2.7.2,1.2-.2-.5-.6-.7-.6-1.2.2ZM27.2,23q.4-.7.1-1.2c-.2.4-.3.8-.1,1.2Z"/>
  </g>
  <g class="st2">
    <path class="st3" d="M75,31.8c0-.2,0-.3,0-.4.7-2.8,2.5-4.9,4.9-6.4.4-.2.8-.4,1.3-.5,1-.3,1.9-.2,2.7.5.2.2.4.3.7.3,1.7.3,2.8,1.3,3.3,2.9.8,2.3.8,4.5-.2,6.8-.3.8-.7,1.6-1,2.4,0,.2,0,.3-.2.5-.4,1.9-1.6,3.3-2.8,4.7-.6.8-1.4,1.4-2.1,2.1-1.1,1.1-2.3,1.9-3.7,2.6-.3,0-.6.3-1,.4-.4.2-.8.2-1.2,0-.7-.2-1.4-.4-2.1-.8-.4-.2-.9-.3-1.3-.4-2.1-.5-4-1.4-5.7-2.8-1.4-1.2-2.8-2.4-4.1-3.6-.5-.5-1-1-1.4-1.5-.8-1-1-2.1-.7-3.4.2-1.3.8-2.4,1.8-3.3.8-.6,1.3-1.4,1.5-2.3.3-.9.7-1.5,1.5-2,.9-.7,2-1.1,3.1-1.4.9-.2,1.7,0,2.5.4.8.5,1.5,1.1,2,1.9.6.9,1.2,1.8,1.8,2.8,0,.1.2.3.3.6h0ZM82.8,29.7v-.9c0-.5-.2-.6-.7-.5-.3,0-.7.2-1,.3-.3.1-.5.3-.8.4-.6.3-1.1.8-1.4,1.4-.4.8-.9,1.6-1.3,2.4s-.9,1.6-1,2.5c0,.4-.4.6-.8.7-.4,0-.8,0-1-.4s-.2-.3-.4-.5c-.6-.4-1.1-1-1.5-1.6-.3-.5-.6-.9-.9-1.4-.4-.5-.7-.9-1.2-1.4-.6-.6-1.4-.9-2.2-.7-.5,0-1,.2-1.6.3-.2,0-.3,0-.4.2,0,.1,0,.3,0,.4,0,.7,0,1.4,0,2.1.6,3.8,2.5,6.9,5.4,9.5.2.2.5.4.8.5.7.2,1.3.6,1.8,1.1.2.2.5.5.8.6.4.3.4.2.7-.2.6-.9,1.2-1.9,1.8-2.8.2-.3.4-.6.6-.9,1.7-2.6,2.8-5.4,3.7-8.4.3-.9.5-1.9.6-2.9v.2ZM63.2,32.9c0,0-.2.2-.3.3-.7.8-1.1,1.6-1.2,2.7,0,.8,0,1.5.5,2.1.4.5.8,1,1.3,1.5,1.3,1.2,2.6,2.3,4,3.4,1.5,1.4,3.3,2.2,5.3,2.7.3,0,.5,0,.8.2,0,0,0-.3-.2-.4-.4-.3-.9-.7-1.3-1-.3-.2-.5-.4-.9-.5-2.9-1.3-5.1-3.3-6.9-5.9-.6-.8-.9-1.8-1-2.8v-2.2h0ZM85.8,30.6q0,.1,0,.2v.2c-.6,3.1-1.7,6-3.5,8.7-.7,1.1-1.5,2.2-2.2,3.3,0,0-.2.3-.3.5h.3c0,0,.3-.2.4-.3,1.4-1.1,2.7-2.4,3.8-3.9.4-.6.8-1.2,1.2-1.8.4-.7.6-1.5.7-2.3v-1.7c0-1,0-1.9-.2-2.9h-.1ZM84,28.5h0v.2c0,1.1,0,2.2-.3,3.3-.7,2.4-1.6,4.8-2.7,7,0,.2-.2.4-.3.6h0s0,0,0-.2c1.8-2.6,3-5.4,3.5-8.5,0-.7,0-1.4,0-2.1s0-.4-.4-.4h0ZM65.2,31.7c-.5.8-.7,1.5-.5,2.4.3,1,.7,2,1.3,2.8,0,.2.3.3.4.4-.2-.9-.5-1.8-.7-2.7s-.3-1.9-.5-2.9h0ZM78.4,28.1c1.3-.8,2.7-1.4,4-2.4-1.1-.2-3.2,1.1-4,2.4h0ZM87.1,31.7h0v-.3c0-1.1-.2-2.1-.6-3.1-.2-.5-.5-1-1-1.4-.2-.1-.3-.2-.5-.3,0,.6.2,1,.5,1.3.4.3.7.7.9,1.2.2.6.4,1.2.4,1.8v.7h.3ZM69.5,27.9c-.7-.5-1.4-.3-1.7.3l1.7-.3ZM83,26.8c.3.4.4.4.9.3,0-.6-.3-.7-.9-.3h0ZM65.2,29.6q.5-.4.6-.8c-.3.2-.5.4-.6.8h0Z"/>
  </g>
  <path class="st3" d="M63.1,61.2v-.3c-.4-1.9,0-3.6,1.1-5.2.2-.3.4-.5.6-.7.5-.5,1.1-.6,1.7-.5h.5c1.1-.3,2,0,2.8.8,1.1,1.1,1.7,2.5,1.8,4.1v2c.3,1.2,0,2.4-.3,3.6-.2.6-.5,1.2-.6,1.9-.3,1-.8,1.8-1.5,2.6,0,.2-.3.4-.5.5-.2.2-.5.3-.7.4-.5,0-1,0-1.5,0s-.6,0-.9,0c-1.4.3-2.8.3-4.2,0-1.2-.3-2.3-.7-3.5-1-.4,0-.9-.3-1.3-.5-.7-.4-1.2-1-1.4-1.8s-.2-1.7.2-2.5.4-1.2.3-1.8c0-.6,0-1.1.3-1.6.4-.7.9-1.2,1.4-1.7.5-.4,1-.5,1.6-.5s1.2.3,1.7.6c.6.4,1.2.8,1.8,1.2,0,0,.2,0,.3.2h.3ZM67.1,57.7c0,0-.2-.3-.3-.5-.2-.3-.3-.3-.6,0-.2,0-.3.3-.5.5,0,0-.2.3-.3.5-.3.3-.4.7-.5,1.2,0,.6,0,1.2,0,1.8,0,.6,0,1.2,0,1.8,0,.3,0,.5-.3.6s-.5.2-.7,0c0,0-.2,0-.4-.2-.5,0-.9-.3-1.3-.5-.3-.2-.6-.4-.9-.6-.3-.2-.7-.4-1.1-.5-.5-.2-1.1,0-1.6.2-.3.2-.6.4-.8.6-.2,0-.3.3,0,.6.2.4.4.8.6,1.2,1.4,2.1,3.4,3.4,5.8,4.2h.6c.5,0,1,0,1.4.2.2,0,.4,0,.6.2q.3,0,.4-.3c0-.7.2-1.4.3-2.2,0-.2,0-.4,0-.7.2-2,.2-4,0-6,0-.7-.2-1.3-.4-1.9h0ZM56.3,65s0,.2,0,.3c-.2.6-.2,1.3,0,1.9,0,.5.4.9.9,1.1.4.2.8.4,1.2.5,1.1.3,2.2.7,3.3,1,1.3.4,2.6.4,3.9,0h.5s0,0-.2,0c-.3,0-.7-.2-1.1-.2h-.7c-2.1,0-4-.6-5.7-1.6-.6-.3-1.1-.8-1.4-1.4-.2-.3-.3-.7-.5-1l-.2-.3v-.3ZM69.2,57.4h0v.2c.5,2,.6,4.1.3,6.2s-.3,1.7-.4,2.6v.4h0c0,0,0-.3.2-.4.5-1.1.9-2.2,1.2-3.4,0-.5.2-.9.2-1.4s0-1.1-.2-1.5c0-.3-.3-.7-.4-1-.3-.6-.6-1.1-.9-1.6h0ZM67.5,56.7h0v.2c.4.6.6,1.3.7,2,.3,1.6.4,3.3.3,4.9v.4h0c.3-2.1.3-4.2-.3-6.2,0-.4-.3-.8-.6-1.2,0-.2-.2-.2-.4,0h.3ZM57.2,63.7c0,.6,0,1.1.4,1.6s.9,1,1.6,1.4c0,0,.2,0,.4,0-.4-.5-.8-.9-1.2-1.4s-.7-1-1.1-1.6h-.1ZM64,58c.6-.9,1.2-1.6,1.7-2.6-.7.2-1.6,1.5-1.7,2.6ZM70.3,57.7h0v-.2c-.3-.6-.7-1.2-1.2-1.7-.3-.3-.6-.4-1-.5h-.4c.2.3.4.5.7.6.3,0,.6.3.9.5.3.3.5.6.7,1,0,0,.2.3.3.4h0ZM58.7,60.3c-.6,0-.9.2-.9.6l.9-.6ZM66.4,55.9q.3,0,.6,0c-.2-.3-.3-.3-.6,0ZM56.6,62.5q.2-.4,0-.6c0,.2-.2.4,0,.6Z"/>
</svg>